<mxfile host="app.diagrams.net" modified="2024-05-27T09:52:01.825Z" agent="Mozilla/5.0 (Macintosh; Intel Mac OS X 10_15_7) AppleWebKit/537.36 (KHTML, like Gecko) Chrome/125.0.0.0 Safari/537.36" etag="IHK8T5DmIvGz6F4nNA5H" version="24.4.8" type="github" pages="10">
  <diagram name="DCU-CLIENT" id="I69ZrJ3DVeAubqPHy6Zh">
    <mxGraphModel dx="1103" dy="677" grid="1" gridSize="10" guides="1" tooltips="1" connect="1" arrows="1" fold="1" page="1" pageScale="1" pageWidth="827" pageHeight="1169" math="0" shadow="0">
      <root>
        <mxCell id="0" />
        <mxCell id="1" parent="0" />
        <mxCell id="lfuO3ys3iuQYlo4a9l6P-1" value="CLIENT" style="shape=umlActor;verticalLabelPosition=bottom;verticalAlign=top;html=1;outlineConnect=0;" parent="1" vertex="1">
          <mxGeometry x="120" y="220" width="30" height="60" as="geometry" />
        </mxCell>
        <mxCell id="lfuO3ys3iuQYlo4a9l6P-3" value="" style="endArrow=none;html=1;rounded=0;" parent="1" source="lfuO3ys3iuQYlo4a9l6P-1" target="lfuO3ys3iuQYlo4a9l6P-2" edge="1">
          <mxGeometry width="50" height="50" relative="1" as="geometry">
            <mxPoint x="340" y="330" as="sourcePoint" />
            <mxPoint x="390" y="280" as="targetPoint" />
          </mxGeometry>
        </mxCell>
        <mxCell id="MVhrwH3kVS4qzDUlSEcv-3" value="Diagram Heading" style="shape=umlFrame;whiteSpace=wrap;html=1;pointerEvents=0;recursiveResize=0;container=1;collapsible=0;width=160;" vertex="1" parent="1">
          <mxGeometry x="250" y="20" width="580" height="500" as="geometry" />
        </mxCell>
        <mxCell id="lfuO3ys3iuQYlo4a9l6P-6" value="Voter" style="ellipse;whiteSpace=wrap;html=1;" parent="MVhrwH3kVS4qzDUlSEcv-3" vertex="1">
          <mxGeometry x="310" y="170" width="100" height="70" as="geometry" />
        </mxCell>
        <mxCell id="lfuO3ys3iuQYlo4a9l6P-4" value="Consulter les informations des candidates" style="ellipse;whiteSpace=wrap;html=1;" parent="MVhrwH3kVS4qzDUlSEcv-3" vertex="1">
          <mxGeometry x="220" y="20" width="120" height="80" as="geometry" />
        </mxCell>
        <mxCell id="MVhrwH3kVS4qzDUlSEcv-1" value="Copier lien page des candidates" style="ellipse;whiteSpace=wrap;html=1;" vertex="1" parent="MVhrwH3kVS4qzDUlSEcv-3">
          <mxGeometry x="220" y="340" width="120" height="80" as="geometry" />
        </mxCell>
        <mxCell id="lfuO3ys3iuQYlo4a9l6P-2" value="Consulter la liste des candidates" style="ellipse;whiteSpace=wrap;html=1;" parent="MVhrwH3kVS4qzDUlSEcv-3" vertex="1">
          <mxGeometry x="70" y="170" width="120" height="80" as="geometry" />
        </mxCell>
        <mxCell id="lfuO3ys3iuQYlo4a9l6P-8" value="&amp;lt;&amp;lt;extend&amp;gt;&amp;gt;" style="html=1;verticalAlign=bottom;labelBackgroundColor=none;endArrow=open;endFill=0;dashed=1;rounded=0;" parent="MVhrwH3kVS4qzDUlSEcv-3" source="lfuO3ys3iuQYlo4a9l6P-6" target="lfuO3ys3iuQYlo4a9l6P-2" edge="1">
          <mxGeometry width="160" relative="1" as="geometry">
            <mxPoint x="252.13140289587636" y="199.51787070756748" as="sourcePoint" />
            <mxPoint x="347.8770340679994" y="250.00422845684164" as="targetPoint" />
          </mxGeometry>
        </mxCell>
        <mxCell id="lfuO3ys3iuQYlo4a9l6P-10" value="&amp;lt;&amp;lt;extend&amp;gt;&amp;gt;" style="html=1;verticalAlign=bottom;labelBackgroundColor=none;endArrow=open;endFill=0;dashed=1;rounded=0;" parent="MVhrwH3kVS4qzDUlSEcv-3" source="lfuO3ys3iuQYlo4a9l6P-4" target="lfuO3ys3iuQYlo4a9l6P-2" edge="1">
          <mxGeometry width="160" relative="1" as="geometry">
            <mxPoint x="279.99686112485244" y="213.39608722552018" as="sourcePoint" />
            <mxPoint x="375.20359312880726" y="150.0042712474618" as="targetPoint" />
          </mxGeometry>
        </mxCell>
        <mxCell id="MVhrwH3kVS4qzDUlSEcv-2" value="&amp;lt;&amp;lt;extend&amp;gt;&amp;gt;" style="html=1;verticalAlign=bottom;labelBackgroundColor=none;endArrow=open;endFill=0;dashed=1;rounded=0;" edge="1" parent="MVhrwH3kVS4qzDUlSEcv-3" source="MVhrwH3kVS4qzDUlSEcv-1" target="lfuO3ys3iuQYlo4a9l6P-2">
          <mxGeometry width="160" relative="1" as="geometry">
            <mxPoint x="240" y="320" as="sourcePoint" />
            <mxPoint x="144" y="270" as="targetPoint" />
          </mxGeometry>
        </mxCell>
        <mxCell id="MVhrwH3kVS4qzDUlSEcv-5" value="KyrmannPay" style="fontStyle=0;html=1;whiteSpace=wrap;" vertex="1" parent="1">
          <mxGeometry x="880" y="210" width="120" height="40" as="geometry" />
        </mxCell>
        <mxCell id="MVhrwH3kVS4qzDUlSEcv-15" value="" style="endArrow=none;html=1;rounded=0;" edge="1" parent="1" source="lfuO3ys3iuQYlo4a9l6P-6" target="MVhrwH3kVS4qzDUlSEcv-5">
          <mxGeometry width="50" height="50" relative="1" as="geometry">
            <mxPoint x="690" y="237" as="sourcePoint" />
            <mxPoint x="860" y="223" as="targetPoint" />
          </mxGeometry>
        </mxCell>
      </root>
    </mxGraphModel>
  </diagram>
  <diagram id="MFrHkuLWdZpBPaZuHMlD" name="DCU-ADMIN">
    <mxGraphModel dx="905" dy="555" grid="1" gridSize="10" guides="1" tooltips="1" connect="1" arrows="1" fold="1" page="1" pageScale="1" pageWidth="827" pageHeight="1169" math="0" shadow="0">
      <root>
        <mxCell id="0" />
        <mxCell id="1" parent="0" />
        <mxCell id="2JKXM0tnyYzd634cJiYP-1" value="ADMIN" style="shape=umlActor;verticalLabelPosition=bottom;verticalAlign=top;html=1;outlineConnect=0;" parent="1" vertex="1">
          <mxGeometry x="110" y="270" width="30" height="60" as="geometry" />
        </mxCell>
        <mxCell id="2JKXM0tnyYzd634cJiYP-5" value="Se connecter" style="ellipse;whiteSpace=wrap;html=1;" parent="1" vertex="1">
          <mxGeometry x="610" y="280" width="84" height="40" as="geometry" />
        </mxCell>
        <mxCell id="kR6ABz3rw2LFDn5kYhWS-1" value="Réinitialiser mot de passe" style="ellipse;whiteSpace=wrap;html=1;" parent="1" vertex="1">
          <mxGeometry x="75" y="70" width="100" height="50" as="geometry" />
        </mxCell>
        <mxCell id="kR6ABz3rw2LFDn5kYhWS-5" value="Gérer candidate" style="ellipse;whiteSpace=wrap;html=1;" parent="1" vertex="1">
          <mxGeometry x="305" y="310" width="80" height="50" as="geometry" />
        </mxCell>
        <mxCell id="kR6ABz3rw2LFDn5kYhWS-6" value="Consulter statistique" style="ellipse;whiteSpace=wrap;html=1;" parent="1" vertex="1">
          <mxGeometry x="280" y="170" width="110" height="50" as="geometry" />
        </mxCell>
        <mxCell id="kR6ABz3rw2LFDn5kYhWS-8" value="Consulter la liste des votes" style="ellipse;whiteSpace=wrap;html=1;" parent="1" vertex="1">
          <mxGeometry x="295" y="380" width="100" height="50" as="geometry" />
        </mxCell>
        <mxCell id="kR6ABz3rw2LFDn5kYhWS-9" value="Gérer évènement" style="ellipse;whiteSpace=wrap;html=1;" parent="1" vertex="1">
          <mxGeometry x="300" y="240" width="90" height="54.5" as="geometry" />
        </mxCell>
        <mxCell id="kR6ABz3rw2LFDn5kYhWS-12" value="" style="endArrow=none;html=1;rounded=0;" parent="1" source="2JKXM0tnyYzd634cJiYP-1" target="kR6ABz3rw2LFDn5kYhWS-6" edge="1">
          <mxGeometry width="50" height="50" relative="1" as="geometry">
            <mxPoint x="450" y="350" as="sourcePoint" />
            <mxPoint x="500" y="300" as="targetPoint" />
          </mxGeometry>
        </mxCell>
        <mxCell id="kR6ABz3rw2LFDn5kYhWS-13" value="" style="endArrow=none;html=1;rounded=0;" parent="1" source="2JKXM0tnyYzd634cJiYP-1" target="kR6ABz3rw2LFDn5kYhWS-5" edge="1">
          <mxGeometry width="50" height="50" relative="1" as="geometry">
            <mxPoint x="160" y="317" as="sourcePoint" />
            <mxPoint x="323" y="287" as="targetPoint" />
          </mxGeometry>
        </mxCell>
        <mxCell id="kR6ABz3rw2LFDn5kYhWS-20" value="" style="endArrow=none;html=1;rounded=0;" parent="1" source="2JKXM0tnyYzd634cJiYP-1" target="kR6ABz3rw2LFDn5kYhWS-8" edge="1">
          <mxGeometry width="50" height="50" relative="1" as="geometry">
            <mxPoint x="150" y="314" as="sourcePoint" />
            <mxPoint x="308" y="355" as="targetPoint" />
          </mxGeometry>
        </mxCell>
        <mxCell id="kR6ABz3rw2LFDn5kYhWS-21" value="" style="endArrow=none;html=1;rounded=0;" parent="1" source="2JKXM0tnyYzd634cJiYP-1" target="kR6ABz3rw2LFDn5kYhWS-9" edge="1">
          <mxGeometry width="50" height="50" relative="1" as="geometry">
            <mxPoint x="160" y="324" as="sourcePoint" />
            <mxPoint x="318" y="365" as="targetPoint" />
          </mxGeometry>
        </mxCell>
        <mxCell id="kR6ABz3rw2LFDn5kYhWS-22" value="&amp;lt;&amp;lt;include&amp;gt;&amp;gt;" style="html=1;verticalAlign=bottom;labelBackgroundColor=none;endArrow=open;endFill=0;dashed=1;rounded=0;" parent="1" source="kR6ABz3rw2LFDn5kYhWS-6" target="2JKXM0tnyYzd634cJiYP-5" edge="1">
          <mxGeometry width="160" relative="1" as="geometry">
            <mxPoint x="460" y="390" as="sourcePoint" />
            <mxPoint x="620" y="390" as="targetPoint" />
          </mxGeometry>
        </mxCell>
        <mxCell id="kR6ABz3rw2LFDn5kYhWS-24" value="&amp;lt;&amp;lt;include&amp;gt;&amp;gt;" style="html=1;verticalAlign=bottom;labelBackgroundColor=none;endArrow=open;endFill=0;dashed=1;rounded=0;" parent="1" source="kR6ABz3rw2LFDn5kYhWS-9" target="2JKXM0tnyYzd634cJiYP-5" edge="1">
          <mxGeometry width="160" relative="1" as="geometry">
            <mxPoint x="390" y="315.5" as="sourcePoint" />
            <mxPoint x="628" y="394.5" as="targetPoint" />
          </mxGeometry>
        </mxCell>
        <mxCell id="kR6ABz3rw2LFDn5kYhWS-25" value="Modifier mot de passe" style="ellipse;whiteSpace=wrap;html=1;" parent="1" vertex="1">
          <mxGeometry x="293" y="80" width="100" height="50" as="geometry" />
        </mxCell>
        <mxCell id="kR6ABz3rw2LFDn5kYhWS-26" value="Gérer administrateur" style="ellipse;whiteSpace=wrap;html=1;" parent="1" vertex="1">
          <mxGeometry x="300" y="440" width="90" height="60" as="geometry" />
        </mxCell>
        <mxCell id="kR6ABz3rw2LFDn5kYhWS-27" value="" style="endArrow=none;html=1;rounded=0;" parent="1" source="2JKXM0tnyYzd634cJiYP-1" target="kR6ABz3rw2LFDn5kYhWS-26" edge="1">
          <mxGeometry width="50" height="50" relative="1" as="geometry">
            <mxPoint x="150" y="380" as="sourcePoint" />
            <mxPoint x="319" y="461" as="targetPoint" />
          </mxGeometry>
        </mxCell>
        <mxCell id="kR6ABz3rw2LFDn5kYhWS-28" value="" style="endArrow=none;html=1;rounded=0;" parent="1" source="2JKXM0tnyYzd634cJiYP-1" target="kR6ABz3rw2LFDn5kYhWS-1" edge="1">
          <mxGeometry width="50" height="50" relative="1" as="geometry">
            <mxPoint x="150" y="398" as="sourcePoint" />
            <mxPoint x="328" y="560" as="targetPoint" />
          </mxGeometry>
        </mxCell>
        <mxCell id="kR6ABz3rw2LFDn5kYhWS-29" value="&amp;lt;&amp;lt;include&amp;gt;&amp;gt;" style="html=1;verticalAlign=bottom;labelBackgroundColor=none;endArrow=open;endFill=0;dashed=1;rounded=0;" parent="1" source="kR6ABz3rw2LFDn5kYhWS-5" target="2JKXM0tnyYzd634cJiYP-5" edge="1">
          <mxGeometry width="160" relative="1" as="geometry">
            <mxPoint x="410" y="356" as="sourcePoint" />
            <mxPoint x="632" y="380" as="targetPoint" />
          </mxGeometry>
        </mxCell>
        <mxCell id="kR6ABz3rw2LFDn5kYhWS-30" value="&amp;lt;&amp;lt;include&amp;gt;&amp;gt;" style="html=1;verticalAlign=bottom;labelBackgroundColor=none;endArrow=open;endFill=0;dashed=1;rounded=0;" parent="1" source="kR6ABz3rw2LFDn5kYhWS-8" target="2JKXM0tnyYzd634cJiYP-5" edge="1">
          <mxGeometry width="160" relative="1" as="geometry">
            <mxPoint x="409" y="292" as="sourcePoint" />
            <mxPoint x="631" y="316" as="targetPoint" />
          </mxGeometry>
        </mxCell>
        <mxCell id="kR6ABz3rw2LFDn5kYhWS-31" value="&amp;lt;&amp;lt;include&amp;gt;&amp;gt;" style="html=1;verticalAlign=bottom;labelBackgroundColor=none;endArrow=open;endFill=0;dashed=1;rounded=0;" parent="1" source="kR6ABz3rw2LFDn5kYhWS-26" target="2JKXM0tnyYzd634cJiYP-5" edge="1">
          <mxGeometry width="160" relative="1" as="geometry">
            <mxPoint x="419" y="302" as="sourcePoint" />
            <mxPoint x="641" y="326" as="targetPoint" />
          </mxGeometry>
        </mxCell>
        <mxCell id="kR6ABz3rw2LFDn5kYhWS-32" value="" style="endArrow=none;html=1;rounded=0;" parent="1" source="2JKXM0tnyYzd634cJiYP-1" target="kR6ABz3rw2LFDn5kYhWS-25" edge="1">
          <mxGeometry width="50" height="50" relative="1" as="geometry">
            <mxPoint x="150" y="303" as="sourcePoint" />
            <mxPoint x="308" y="223" as="targetPoint" />
          </mxGeometry>
        </mxCell>
        <mxCell id="kR6ABz3rw2LFDn5kYhWS-34" value="&amp;lt;&amp;lt;include&amp;gt;&amp;gt;" style="html=1;verticalAlign=bottom;labelBackgroundColor=none;endArrow=open;endFill=0;dashed=1;rounded=0;" parent="1" source="kR6ABz3rw2LFDn5kYhWS-25" target="2JKXM0tnyYzd634cJiYP-5" edge="1">
          <mxGeometry width="160" relative="1" as="geometry">
            <mxPoint x="390" y="220" as="sourcePoint" />
            <mxPoint x="628" y="299" as="targetPoint" />
          </mxGeometry>
        </mxCell>
        <mxCell id="kR6ABz3rw2LFDn5kYhWS-35" value="Se déconnecter" style="ellipse;whiteSpace=wrap;html=1;" parent="1" vertex="1">
          <mxGeometry x="301" y="530" width="84" height="40" as="geometry" />
        </mxCell>
        <mxCell id="kR6ABz3rw2LFDn5kYhWS-37" value="" style="endArrow=none;html=1;rounded=0;" parent="1" source="2JKXM0tnyYzd634cJiYP-1" target="kR6ABz3rw2LFDn5kYhWS-35" edge="1">
          <mxGeometry width="50" height="50" relative="1" as="geometry">
            <mxPoint x="135" y="340" as="sourcePoint" />
            <mxPoint x="135" y="560" as="targetPoint" />
          </mxGeometry>
        </mxCell>
        <mxCell id="kR6ABz3rw2LFDn5kYhWS-38" value="&amp;lt;&amp;lt;include&amp;gt;&amp;gt;" style="html=1;verticalAlign=bottom;labelBackgroundColor=none;endArrow=open;endFill=0;dashed=1;rounded=0;" parent="1" source="kR6ABz3rw2LFDn5kYhWS-35" target="2JKXM0tnyYzd634cJiYP-5" edge="1">
          <mxGeometry width="160" relative="1" as="geometry">
            <mxPoint x="387" y="489" as="sourcePoint" />
            <mxPoint x="637" y="326" as="targetPoint" />
          </mxGeometry>
        </mxCell>
      </root>
    </mxGraphModel>
  </diagram>
  <diagram id="JZUBcqBdHI38rkSBJD7N" name="DS-PAIEMENT">
    <mxGraphModel dx="1138" dy="699" grid="1" gridSize="10" guides="1" tooltips="1" connect="1" arrows="1" fold="1" page="1" pageScale="1" pageWidth="827" pageHeight="1169" math="0" shadow="0">
      <root>
        <mxCell id="0" />
        <mxCell id="1" parent="0" />
        <mxCell id="yDdjouY24mWtWCqS2nnJ-7" value="Interface de vote" style="shape=umlLifeline;perimeter=lifelinePerimeter;whiteSpace=wrap;html=1;container=1;dropTarget=0;collapsible=0;recursiveResize=0;outlineConnect=0;portConstraint=eastwest;newEdgeStyle={&quot;edgeStyle&quot;:&quot;elbowEdgeStyle&quot;,&quot;elbow&quot;:&quot;vertical&quot;,&quot;curved&quot;:0,&quot;rounded&quot;:0};" parent="1" vertex="1">
          <mxGeometry x="250" y="80" width="100" height="300" as="geometry" />
        </mxCell>
        <mxCell id="yDdjouY24mWtWCqS2nnJ-8" value="" style="html=1;points=[[0,0,0,0,5],[0,1,0,0,-5],[1,0,0,0,5],[1,1,0,0,-5]];perimeter=orthogonalPerimeter;outlineConnect=0;targetShapes=umlLifeline;portConstraint=eastwest;newEdgeStyle={&quot;curved&quot;:0,&quot;rounded&quot;:0};" parent="yDdjouY24mWtWCqS2nnJ-7" vertex="1">
          <mxGeometry x="45" y="90" width="10" height="170" as="geometry" />
        </mxCell>
        <mxCell id="yDdjouY24mWtWCqS2nnJ-9" value="MS Tabouret Royal" style="shape=umlLifeline;perimeter=lifelinePerimeter;whiteSpace=wrap;html=1;container=1;dropTarget=0;collapsible=0;recursiveResize=0;outlineConnect=0;portConstraint=eastwest;newEdgeStyle={&quot;edgeStyle&quot;:&quot;elbowEdgeStyle&quot;,&quot;elbow&quot;:&quot;vertical&quot;,&quot;curved&quot;:0,&quot;rounded&quot;:0};" parent="1" vertex="1">
          <mxGeometry x="840" y="80" width="100" height="410" as="geometry" />
        </mxCell>
        <mxCell id="yDdjouY24mWtWCqS2nnJ-10" value="" style="html=1;points=[[0,0,0,0,5],[0,1,0,0,-5],[1,0,0,0,5],[1,1,0,0,-5]];perimeter=orthogonalPerimeter;outlineConnect=0;targetShapes=umlLifeline;portConstraint=eastwest;newEdgeStyle={&quot;curved&quot;:0,&quot;rounded&quot;:0};" parent="yDdjouY24mWtWCqS2nnJ-9" vertex="1">
          <mxGeometry x="45" y="260" width="10" height="90" as="geometry" />
        </mxCell>
        <mxCell id="yDdjouY24mWtWCqS2nnJ-35" value="" style="html=1;points=[[0,0,0,0,5],[0,1,0,0,-5],[1,0,0,0,5],[1,1,0,0,-5]];perimeter=orthogonalPerimeter;outlineConnect=0;targetShapes=umlLifeline;portConstraint=eastwest;newEdgeStyle={&quot;curved&quot;:0,&quot;rounded&quot;:0};" parent="yDdjouY24mWtWCqS2nnJ-9" vertex="1">
          <mxGeometry x="55" y="300" width="10" height="40" as="geometry" />
        </mxCell>
        <mxCell id="yDdjouY24mWtWCqS2nnJ-36" value="Enregistrement&lt;br&gt;de la transaction +&amp;nbsp;&lt;div&gt;Calcule des voies et&amp;nbsp;&lt;/div&gt;&lt;div&gt;pourcentage&lt;/div&gt;" style="html=1;align=left;spacingLeft=2;endArrow=block;rounded=0;edgeStyle=orthogonalEdgeStyle;curved=0;rounded=0;" parent="yDdjouY24mWtWCqS2nnJ-9" source="yDdjouY24mWtWCqS2nnJ-10" target="yDdjouY24mWtWCqS2nnJ-35" edge="1">
          <mxGeometry relative="1" as="geometry">
            <mxPoint x="60" y="280" as="sourcePoint" />
            <Array as="points">
              <mxPoint x="90" y="280" />
              <mxPoint x="90" y="320" />
            </Array>
          </mxGeometry>
        </mxCell>
        <mxCell id="yDdjouY24mWtWCqS2nnJ-12" value="KYRMANN PAY" style="shape=umlLifeline;perimeter=lifelinePerimeter;whiteSpace=wrap;html=1;container=1;dropTarget=0;collapsible=0;recursiveResize=0;outlineConnect=0;portConstraint=eastwest;newEdgeStyle={&quot;edgeStyle&quot;:&quot;elbowEdgeStyle&quot;,&quot;elbow&quot;:&quot;vertical&quot;,&quot;curved&quot;:0,&quot;rounded&quot;:0};" parent="1" vertex="1">
          <mxGeometry x="450" y="80" width="100" height="300" as="geometry" />
        </mxCell>
        <mxCell id="yDdjouY24mWtWCqS2nnJ-13" value="" style="html=1;points=[[0,0,0,0,5],[0,1,0,0,-5],[1,0,0,0,5],[1,1,0,0,-5]];perimeter=orthogonalPerimeter;outlineConnect=0;targetShapes=umlLifeline;portConstraint=eastwest;newEdgeStyle={&quot;curved&quot;:0,&quot;rounded&quot;:0};" parent="yDdjouY24mWtWCqS2nnJ-12" vertex="1">
          <mxGeometry x="45" y="90" width="10" height="170" as="geometry" />
        </mxCell>
        <mxCell id="yDdjouY24mWtWCqS2nnJ-25" value="" style="html=1;points=[[0,0,0,0,5],[0,1,0,0,-5],[1,0,0,0,5],[1,1,0,0,-5]];perimeter=orthogonalPerimeter;outlineConnect=0;targetShapes=umlLifeline;portConstraint=eastwest;newEdgeStyle={&quot;curved&quot;:0,&quot;rounded&quot;:0};" parent="yDdjouY24mWtWCqS2nnJ-12" vertex="1">
          <mxGeometry x="55.000000000000036" y="140" width="10" height="40" as="geometry" />
        </mxCell>
        <mxCell id="yDdjouY24mWtWCqS2nnJ-26" value="traitement&amp;nbsp;&lt;br&gt;de la requête" style="html=1;align=left;spacingLeft=2;endArrow=block;rounded=0;edgeStyle=orthogonalEdgeStyle;curved=0;rounded=0;" parent="yDdjouY24mWtWCqS2nnJ-12" source="yDdjouY24mWtWCqS2nnJ-13" target="yDdjouY24mWtWCqS2nnJ-25" edge="1">
          <mxGeometry relative="1" as="geometry">
            <mxPoint x="60.000000000000036" y="120" as="sourcePoint" />
            <Array as="points">
              <mxPoint x="90" y="120" />
              <mxPoint x="90" y="150" />
            </Array>
          </mxGeometry>
        </mxCell>
        <mxCell id="yDdjouY24mWtWCqS2nnJ-14" value="SAV" style="shape=umlLifeline;perimeter=lifelinePerimeter;whiteSpace=wrap;html=1;container=1;dropTarget=0;collapsible=0;recursiveResize=0;outlineConnect=0;portConstraint=eastwest;newEdgeStyle={&quot;edgeStyle&quot;:&quot;elbowEdgeStyle&quot;,&quot;elbow&quot;:&quot;vertical&quot;,&quot;curved&quot;:0,&quot;rounded&quot;:0};" parent="1" vertex="1">
          <mxGeometry x="650" y="80" width="100" height="400" as="geometry" />
        </mxCell>
        <mxCell id="yDdjouY24mWtWCqS2nnJ-15" value="" style="html=1;points=[[0,0,0,0,5],[0,1,0,0,-5],[1,0,0,0,5],[1,1,0,0,-5]];perimeter=orthogonalPerimeter;outlineConnect=0;targetShapes=umlLifeline;portConstraint=eastwest;newEdgeStyle={&quot;curved&quot;:0,&quot;rounded&quot;:0};" parent="yDdjouY24mWtWCqS2nnJ-14" vertex="1">
          <mxGeometry x="45" y="190" width="10" height="170" as="geometry" />
        </mxCell>
        <mxCell id="yDdjouY24mWtWCqS2nnJ-32" value="" style="html=1;points=[[0,0,0,0,5],[0,1,0,0,-5],[1,0,0,0,5],[1,1,0,0,-5]];perimeter=orthogonalPerimeter;outlineConnect=0;targetShapes=umlLifeline;portConstraint=eastwest;newEdgeStyle={&quot;curved&quot;:0,&quot;rounded&quot;:0};" parent="yDdjouY24mWtWCqS2nnJ-14" vertex="1">
          <mxGeometry x="55" y="220" width="10" height="40" as="geometry" />
        </mxCell>
        <mxCell id="yDdjouY24mWtWCqS2nnJ-33" value="Enregistrement&lt;br&gt;de la transaction" style="html=1;align=left;spacingLeft=2;endArrow=block;rounded=0;edgeStyle=orthogonalEdgeStyle;curved=0;rounded=0;" parent="yDdjouY24mWtWCqS2nnJ-14" source="yDdjouY24mWtWCqS2nnJ-15" target="yDdjouY24mWtWCqS2nnJ-32" edge="1">
          <mxGeometry relative="1" as="geometry">
            <mxPoint x="60" y="200" as="sourcePoint" />
            <Array as="points">
              <mxPoint x="90" y="200" />
              <mxPoint x="90" y="230" />
            </Array>
          </mxGeometry>
        </mxCell>
        <mxCell id="yDdjouY24mWtWCqS2nnJ-23" value="Requête de paiement" style="html=1;verticalAlign=bottom;endArrow=block;curved=0;rounded=0;" parent="1" edge="1">
          <mxGeometry width="80" relative="1" as="geometry">
            <mxPoint x="305" y="190" as="sourcePoint" />
            <mxPoint x="495" y="190" as="targetPoint" />
          </mxGeometry>
        </mxCell>
        <mxCell id="yDdjouY24mWtWCqS2nnJ-27" value="" style="html=1;verticalAlign=bottom;labelBackgroundColor=none;endArrow=open;endFill=0;dashed=1;rounded=0;" parent="1" edge="1">
          <mxGeometry width="160" relative="1" as="geometry">
            <mxPoint x="495" y="282" as="sourcePoint" />
            <mxPoint x="305" y="282" as="targetPoint" />
          </mxGeometry>
        </mxCell>
        <mxCell id="yDdjouY24mWtWCqS2nnJ-28" value="Retourne statut paiement" style="edgeLabel;html=1;align=center;verticalAlign=middle;resizable=0;points=[];" parent="yDdjouY24mWtWCqS2nnJ-27" vertex="1" connectable="0">
          <mxGeometry x="-0.1368" relative="1" as="geometry">
            <mxPoint as="offset" />
          </mxGeometry>
        </mxCell>
        <mxCell id="yDdjouY24mWtWCqS2nnJ-31" value="Envoie de la transaction" style="html=1;verticalAlign=bottom;endArrow=block;curved=0;rounded=0;" parent="1" target="yDdjouY24mWtWCqS2nnJ-15" edge="1">
          <mxGeometry width="80" relative="1" as="geometry">
            <mxPoint x="505" y="269" as="sourcePoint" />
            <mxPoint x="699.5" y="269" as="targetPoint" />
          </mxGeometry>
        </mxCell>
        <mxCell id="L572O-ad2SHiT2NFj1mc-1" value="" style="html=1;verticalAlign=bottom;labelBackgroundColor=none;endArrow=open;endFill=0;dashed=1;rounded=0;entryX=1;entryY=0;entryDx=0;entryDy=5;entryPerimeter=0;" edge="1" parent="1" source="yDdjouY24mWtWCqS2nnJ-15" target="yDdjouY24mWtWCqS2nnJ-10">
          <mxGeometry width="160" relative="1" as="geometry">
            <mxPoint x="710" y="350" as="sourcePoint" />
            <mxPoint x="870" y="350" as="targetPoint" />
          </mxGeometry>
        </mxCell>
        <mxCell id="L572O-ad2SHiT2NFj1mc-2" value="Envoie du callback" style="edgeLabel;html=1;align=center;verticalAlign=middle;resizable=0;points=[];" vertex="1" connectable="0" parent="L572O-ad2SHiT2NFj1mc-1">
          <mxGeometry x="-0.0798" relative="1" as="geometry">
            <mxPoint as="offset" />
          </mxGeometry>
        </mxCell>
      </root>
    </mxGraphModel>
  </diagram>
  <diagram id="6ACLgs6ae4o5iwLyR_9W" name="DS-VOTER">
    <mxGraphModel dx="2044" dy="747" grid="1" gridSize="10" guides="1" tooltips="1" connect="1" arrows="1" fold="1" page="1" pageScale="1" pageWidth="827" pageHeight="1169" math="0" shadow="0">
      <root>
        <mxCell id="0" />
        <mxCell id="1" parent="0" />
        <mxCell id="NTXmu_5m_bFcN84rkHJy-1" value="" style="shape=umlLifeline;perimeter=lifelinePerimeter;whiteSpace=wrap;html=1;container=1;dropTarget=0;collapsible=0;recursiveResize=0;outlineConnect=0;portConstraint=eastwest;newEdgeStyle={&quot;curved&quot;:0,&quot;rounded&quot;:0};participant=umlActor;" parent="1" vertex="1">
          <mxGeometry x="50" y="110" width="20" height="660" as="geometry" />
        </mxCell>
        <mxCell id="NTXmu_5m_bFcN84rkHJy-2" value="" style="html=1;points=[[0,0,0,0,5],[0,1,0,0,-5],[1,0,0,0,5],[1,1,0,0,-5]];perimeter=orthogonalPerimeter;outlineConnect=0;targetShapes=umlLifeline;portConstraint=eastwest;newEdgeStyle={&quot;curved&quot;:0,&quot;rounded&quot;:0};" parent="NTXmu_5m_bFcN84rkHJy-1" vertex="1">
          <mxGeometry x="5" y="74" width="10" height="526" as="geometry" />
        </mxCell>
        <mxCell id="NTXmu_5m_bFcN84rkHJy-3" value="CLIENT" style="text;html=1;align=center;verticalAlign=middle;resizable=0;points=[];autosize=1;strokeColor=none;fillColor=none;" parent="1" vertex="1">
          <mxGeometry x="25" y="80" width="70" height="30" as="geometry" />
        </mxCell>
        <mxCell id="ZeymTlRCLz36IPvFuQh5-1" value="User interface MTR" style="shape=umlLifeline;perimeter=lifelinePerimeter;whiteSpace=wrap;html=1;container=1;dropTarget=0;collapsible=0;recursiveResize=0;outlineConnect=0;portConstraint=eastwest;newEdgeStyle={&quot;edgeStyle&quot;:&quot;elbowEdgeStyle&quot;,&quot;elbow&quot;:&quot;vertical&quot;,&quot;curved&quot;:0,&quot;rounded&quot;:0};" parent="1" vertex="1">
          <mxGeometry x="250" y="90" width="100" height="670" as="geometry" />
        </mxCell>
        <mxCell id="ZeymTlRCLz36IPvFuQh5-2" value="" style="html=1;points=[[0,0,0,0,5],[0,1,0,0,-5],[1,0,0,0,5],[1,1,0,0,-5]];perimeter=orthogonalPerimeter;outlineConnect=0;targetShapes=umlLifeline;portConstraint=eastwest;newEdgeStyle={&quot;curved&quot;:0,&quot;rounded&quot;:0};" parent="ZeymTlRCLz36IPvFuQh5-1" vertex="1">
          <mxGeometry x="45" y="90" width="10" height="340" as="geometry" />
        </mxCell>
        <mxCell id="ZeymTlRCLz36IPvFuQh5-3" value="Accéder interface&lt;br&gt;&amp;nbsp;de vote" style="html=1;verticalAlign=bottom;labelBackgroundColor=none;endArrow=open;endFill=0;rounded=0;exitX=0.886;exitY=0.074;exitDx=0;exitDy=0;exitPerimeter=0;" parent="1" edge="1">
          <mxGeometry x="0.0003" width="160" relative="1" as="geometry">
            <mxPoint x="63.86000000000013" y="207.92399999999986" as="sourcePoint" />
            <mxPoint x="299.5" y="207.92399999999986" as="targetPoint" />
            <mxPoint as="offset" />
          </mxGeometry>
        </mxCell>
        <mxCell id="jiajVEAEGkGo8oOFupq--1" value="MS Tabouret Royal" style="shape=umlLifeline;perimeter=lifelinePerimeter;whiteSpace=wrap;html=1;container=1;dropTarget=0;collapsible=0;recursiveResize=0;outlineConnect=0;portConstraint=eastwest;newEdgeStyle={&quot;edgeStyle&quot;:&quot;elbowEdgeStyle&quot;,&quot;elbow&quot;:&quot;vertical&quot;,&quot;curved&quot;:0,&quot;rounded&quot;:0};" parent="1" vertex="1">
          <mxGeometry x="450" y="90" width="100" height="650" as="geometry" />
        </mxCell>
        <mxCell id="jiajVEAEGkGo8oOFupq--2" value="" style="html=1;points=[[0,0,0,0,5],[0,1,0,0,-5],[1,0,0,0,5],[1,1,0,0,-5]];perimeter=orthogonalPerimeter;outlineConnect=0;targetShapes=umlLifeline;portConstraint=eastwest;newEdgeStyle={&quot;curved&quot;:0,&quot;rounded&quot;:0};" parent="jiajVEAEGkGo8oOFupq--1" vertex="1">
          <mxGeometry x="45" y="90" width="10" height="520" as="geometry" />
        </mxCell>
        <mxCell id="jiajVEAEGkGo8oOFupq--5" value="" style="html=1;verticalAlign=bottom;labelBackgroundColor=none;endArrow=block;endFill=1;rounded=0;" parent="1" edge="1">
          <mxGeometry width="160" relative="1" as="geometry">
            <mxPoint x="305" y="220" as="sourcePoint" />
            <mxPoint x="495" y="220" as="targetPoint" />
          </mxGeometry>
        </mxCell>
        <mxCell id="jiajVEAEGkGo8oOFupq--6" value="Requête de vérification&lt;br&gt;date limite de vote" style="edgeLabel;html=1;align=center;verticalAlign=middle;resizable=0;points=[];" parent="jiajVEAEGkGo8oOFupq--5" vertex="1" connectable="0">
          <mxGeometry x="0.1383" y="-1" relative="1" as="geometry">
            <mxPoint x="-13" as="offset" />
          </mxGeometry>
        </mxCell>
        <mxCell id="KT8MilEyrdLCRUYrHmUv-1" value="" style="html=1;verticalAlign=bottom;labelBackgroundColor=none;endArrow=open;endFill=0;dashed=1;rounded=0;" parent="1" edge="1">
          <mxGeometry width="160" relative="1" as="geometry">
            <mxPoint x="495" y="260" as="sourcePoint" />
            <mxPoint x="305" y="260" as="targetPoint" />
          </mxGeometry>
        </mxCell>
        <mxCell id="KT8MilEyrdLCRUYrHmUv-2" value="Retourne statut" style="edgeLabel;html=1;align=center;verticalAlign=middle;resizable=0;points=[];" parent="KT8MilEyrdLCRUYrHmUv-1" vertex="1" connectable="0">
          <mxGeometry x="-0.1368" relative="1" as="geometry">
            <mxPoint as="offset" />
          </mxGeometry>
        </mxCell>
        <mxCell id="KT8MilEyrdLCRUYrHmUv-3" value="alt" style="shape=umlFrame;whiteSpace=wrap;html=1;pointerEvents=0;recursiveResize=0;container=1;collapsible=0;width=80;height=30;" parent="1" vertex="1">
          <mxGeometry x="-100" y="290" width="670" height="440" as="geometry" />
        </mxCell>
        <mxCell id="KT8MilEyrdLCRUYrHmUv-4" value="[Statut = active]" style="text;html=1;" parent="KT8MilEyrdLCRUYrHmUv-3" vertex="1">
          <mxGeometry width="100" height="20" relative="1" as="geometry">
            <mxPoint x="20" y="40" as="offset" />
          </mxGeometry>
        </mxCell>
        <mxCell id="KT8MilEyrdLCRUYrHmUv-5" value="[Statut&amp;nbsp; = inactive]" style="line;strokeWidth=1;dashed=1;labelPosition=center;verticalLabelPosition=bottom;align=left;verticalAlign=top;spacingLeft=20;spacingTop=15;html=1;whiteSpace=wrap;" parent="KT8MilEyrdLCRUYrHmUv-3" vertex="1">
          <mxGeometry x="10" y="350" width="660" height="10" as="geometry" />
        </mxCell>
        <mxCell id="KT8MilEyrdLCRUYrHmUv-6" value="" style="html=1;verticalAlign=bottom;labelBackgroundColor=none;endArrow=open;endFill=0;dashed=1;rounded=0;" parent="KT8MilEyrdLCRUYrHmUv-3" edge="1">
          <mxGeometry width="160" relative="1" as="geometry">
            <mxPoint x="395" y="30" as="sourcePoint" />
            <mxPoint x="164.99999999999977" y="30" as="targetPoint" />
          </mxGeometry>
        </mxCell>
        <mxCell id="KT8MilEyrdLCRUYrHmUv-7" value="Retourne PageVote &lt;br&gt;avec possibilité de vote" style="edgeLabel;html=1;align=center;verticalAlign=middle;resizable=0;points=[];" parent="KT8MilEyrdLCRUYrHmUv-6" vertex="1" connectable="0">
          <mxGeometry x="-0.1368" relative="1" as="geometry">
            <mxPoint as="offset" />
          </mxGeometry>
        </mxCell>
        <mxCell id="UbRTKd88sfhYS0I45JIt-1" value="alt" style="shape=umlFrame;whiteSpace=wrap;html=1;pointerEvents=0;recursiveResize=0;container=1;collapsible=0;width=80;height=30;" parent="KT8MilEyrdLCRUYrHmUv-3" vertex="1">
          <mxGeometry x="30" y="130" width="620" height="200" as="geometry" />
        </mxCell>
        <mxCell id="UbRTKd88sfhYS0I45JIt-2" value="[Statut = active]" style="text;html=1;" parent="UbRTKd88sfhYS0I45JIt-1" vertex="1">
          <mxGeometry width="100" height="20" relative="1" as="geometry">
            <mxPoint x="20" y="40" as="offset" />
          </mxGeometry>
        </mxCell>
        <mxCell id="XoXxa5DGNMaOxTBbHZ4N-5" value="Ref" style="shape=umlFrame;whiteSpace=wrap;html=1;pointerEvents=0;recursiveResize=0;container=1;collapsible=0;width=40;fillStyle=auto;height=20;" parent="UbRTKd88sfhYS0I45JIt-1" vertex="1">
          <mxGeometry x="320" y="10" width="270" height="80" as="geometry" />
        </mxCell>
        <mxCell id="XoXxa5DGNMaOxTBbHZ4N-6" value="VOTER" style="text;align=center;html=1;" parent="XoXxa5DGNMaOxTBbHZ4N-5" vertex="1">
          <mxGeometry width="100" height="20" relative="1" as="geometry">
            <mxPoint x="100" y="30" as="offset" />
          </mxGeometry>
        </mxCell>
        <mxCell id="UbRTKd88sfhYS0I45JIt-3" value="[Statut&amp;nbsp; = inactive]" style="line;strokeWidth=1;dashed=1;labelPosition=center;verticalLabelPosition=bottom;align=left;verticalAlign=top;spacingLeft=20;spacingTop=15;html=1;whiteSpace=wrap;" parent="UbRTKd88sfhYS0I45JIt-1" vertex="1">
          <mxGeometry y="110" width="570" height="10" as="geometry" />
        </mxCell>
        <mxCell id="XoXxa5DGNMaOxTBbHZ4N-8" value="" style="html=1;verticalAlign=bottom;labelBackgroundColor=none;endArrow=open;endFill=0;dashed=1;rounded=0;" parent="UbRTKd88sfhYS0I45JIt-1" edge="1">
          <mxGeometry width="160" relative="1" as="geometry">
            <mxPoint x="565" y="149.9999999999999" as="sourcePoint" />
            <mxPoint x="135" y="149.9999999999999" as="targetPoint" />
          </mxGeometry>
        </mxCell>
        <mxCell id="XoXxa5DGNMaOxTBbHZ4N-9" value="Retourne PageVote &lt;br&gt;sans possibilité de vote" style="edgeLabel;html=1;align=center;verticalAlign=middle;resizable=0;points=[];" parent="XoXxa5DGNMaOxTBbHZ4N-8" vertex="1" connectable="0">
          <mxGeometry x="-0.1368" relative="1" as="geometry">
            <mxPoint as="offset" />
          </mxGeometry>
        </mxCell>
        <mxCell id="UbRTKd88sfhYS0I45JIt-8" value="" style="html=1;verticalAlign=bottom;labelBackgroundColor=none;endArrow=block;endFill=1;rounded=0;" parent="KT8MilEyrdLCRUYrHmUv-3" edge="1">
          <mxGeometry width="160" relative="1" as="geometry">
            <mxPoint x="165" y="60" as="sourcePoint" />
            <mxPoint x="395" y="60" as="targetPoint" />
          </mxGeometry>
        </mxCell>
        <mxCell id="UbRTKd88sfhYS0I45JIt-9" value="Voter" style="edgeLabel;html=1;align=center;verticalAlign=middle;resizable=0;points=[];" parent="UbRTKd88sfhYS0I45JIt-8" vertex="1" connectable="0">
          <mxGeometry x="0.1383" y="-1" relative="1" as="geometry">
            <mxPoint x="-13" as="offset" />
          </mxGeometry>
        </mxCell>
        <mxCell id="KT8MilEyrdLCRUYrHmUv-8" value="" style="html=1;verticalAlign=bottom;labelBackgroundColor=none;endArrow=open;endFill=0;dashed=1;rounded=0;" parent="KT8MilEyrdLCRUYrHmUv-3" edge="1">
          <mxGeometry width="160" relative="1" as="geometry">
            <mxPoint x="595" y="380" as="sourcePoint" />
            <mxPoint x="165" y="380" as="targetPoint" />
          </mxGeometry>
        </mxCell>
        <mxCell id="KT8MilEyrdLCRUYrHmUv-9" value="Retourne PageVote &lt;br&gt;sans possibilité de vote" style="edgeLabel;html=1;align=center;verticalAlign=middle;resizable=0;points=[];" parent="KT8MilEyrdLCRUYrHmUv-8" vertex="1" connectable="0">
          <mxGeometry x="-0.1368" relative="1" as="geometry">
            <mxPoint as="offset" />
          </mxGeometry>
        </mxCell>
        <mxCell id="UbRTKd88sfhYS0I45JIt-10" value="" style="html=1;verticalAlign=bottom;labelBackgroundColor=none;endArrow=block;endFill=1;rounded=0;" parent="1" edge="1">
          <mxGeometry width="160" relative="1" as="geometry">
            <mxPoint x="305" y="374" as="sourcePoint" />
            <mxPoint x="495" y="374" as="targetPoint" />
          </mxGeometry>
        </mxCell>
        <mxCell id="UbRTKd88sfhYS0I45JIt-11" value="Requête de vérification&lt;br&gt;date limite de vote" style="edgeLabel;html=1;align=center;verticalAlign=middle;resizable=0;points=[];" parent="UbRTKd88sfhYS0I45JIt-10" vertex="1" connectable="0">
          <mxGeometry x="0.1383" y="-1" relative="1" as="geometry">
            <mxPoint x="-13" as="offset" />
          </mxGeometry>
        </mxCell>
        <mxCell id="UbRTKd88sfhYS0I45JIt-12" value="" style="html=1;verticalAlign=bottom;labelBackgroundColor=none;endArrow=open;endFill=0;dashed=1;rounded=0;" parent="1" edge="1">
          <mxGeometry width="160" relative="1" as="geometry">
            <mxPoint x="495" y="408" as="sourcePoint" />
            <mxPoint x="305" y="408" as="targetPoint" />
          </mxGeometry>
        </mxCell>
        <mxCell id="UbRTKd88sfhYS0I45JIt-13" value="Retourne statut" style="edgeLabel;html=1;align=center;verticalAlign=middle;resizable=0;points=[];" parent="UbRTKd88sfhYS0I45JIt-12" vertex="1" connectable="0">
          <mxGeometry x="-0.1368" relative="1" as="geometry">
            <mxPoint as="offset" />
          </mxGeometry>
        </mxCell>
      </root>
    </mxGraphModel>
  </diagram>
  <diagram id="P_rABCycYaic_MQPlN-K" name="DCP-INTERFACE-CLIENTE">
    <mxGraphModel dx="2184" dy="2002" grid="1" gridSize="10" guides="1" tooltips="1" connect="1" arrows="1" fold="1" page="1" pageScale="1" pageWidth="827" pageHeight="1169" math="0" shadow="0">
      <root>
        <mxCell id="0" />
        <mxCell id="1" parent="0" />
        <mxCell id="j9k23hoewVzHL0nU_-3v-1" value="&amp;lt;&amp;lt;dialogue&amp;gt;&amp;gt;&lt;br&gt;&lt;b&gt;PageAccueil&lt;/b&gt;" style="swimlane;fontStyle=0;align=center;verticalAlign=top;childLayout=stackLayout;horizontal=1;startSize=55;horizontalStack=0;resizeParent=1;resizeParentMax=0;resizeLast=0;collapsible=0;marginBottom=0;html=1;whiteSpace=wrap;" parent="1" vertex="1">
          <mxGeometry x="180" y="160" width="210" height="165" as="geometry" />
        </mxCell>
        <mxCell id="j9k23hoewVzHL0nU_-3v-2" value="&amp;lt;&amp;lt;resultatCandidate&amp;gt;&amp;gt; listCandidate" style="text;html=1;align=left;verticalAlign=middle;spacingLeft=4;spacingRight=4;overflow=hidden;rotatable=0;points=[[0,0.5],[1,0.5]];portConstraint=eastwest;whiteSpace=wrap;" parent="j9k23hoewVzHL0nU_-3v-1" vertex="1">
          <mxGeometry y="55" width="210" height="20" as="geometry" />
        </mxCell>
        <mxCell id="j9k23hoewVzHL0nU_-3v-3" value="" style="line;strokeWidth=1;align=left;verticalAlign=middle;spacingTop=-1;spacingLeft=3;spacingRight=3;rotatable=0;labelPosition=right;points=[];portConstraint=eastwest;" parent="j9k23hoewVzHL0nU_-3v-1" vertex="1">
          <mxGeometry y="75" width="210" height="30" as="geometry" />
        </mxCell>
        <mxCell id="j9k23hoewVzHL0nU_-3v-4" value="getpagecote()" style="text;html=1;align=left;verticalAlign=middle;spacingLeft=4;spacingRight=4;overflow=hidden;rotatable=0;points=[[0,0.5],[1,0.5]];portConstraint=eastwest;whiteSpace=wrap;" parent="j9k23hoewVzHL0nU_-3v-1" vertex="1">
          <mxGeometry y="105" width="210" height="20" as="geometry" />
        </mxCell>
        <mxCell id="j9k23hoewVzHL0nU_-3v-6" value="consulterPageQuiSommesNous()" style="text;html=1;align=left;verticalAlign=middle;spacingLeft=4;spacingRight=4;overflow=hidden;rotatable=0;points=[[0,0.5],[1,0.5]];portConstraint=eastwest;whiteSpace=wrap;" parent="j9k23hoewVzHL0nU_-3v-1" vertex="1">
          <mxGeometry y="125" width="210" height="20" as="geometry" />
        </mxCell>
        <mxCell id="xIWGj_7B2mutlKnrKTba-22" value="consulterPageinfoConcour&lt;span style=&quot;background-color: initial;&quot;&gt;()&lt;/span&gt;" style="text;html=1;align=left;verticalAlign=middle;spacingLeft=4;spacingRight=4;overflow=hidden;rotatable=0;points=[[0,0.5],[1,0.5]];portConstraint=eastwest;whiteSpace=wrap;" vertex="1" parent="j9k23hoewVzHL0nU_-3v-1">
          <mxGeometry y="145" width="210" height="20" as="geometry" />
        </mxCell>
        <mxCell id="j9k23hoewVzHL0nU_-3v-7" value="" style="endArrow=none;startArrow=none;endFill=0;startFill=0;endSize=8;html=1;verticalAlign=bottom;labelBackgroundColor=none;strokeWidth=3;rounded=0;" parent="1" source="60iPmdZbXNaLYte4w0l6-1" target="j9k23hoewVzHL0nU_-3v-1" edge="1">
          <mxGeometry width="160" relative="1" as="geometry">
            <mxPoint x="-20" y="270" as="sourcePoint" />
            <mxPoint x="460" y="330" as="targetPoint" />
          </mxGeometry>
        </mxCell>
        <mxCell id="j9k23hoewVzHL0nU_-3v-8" value="&amp;lt;&amp;lt;contrôle&amp;gt;&amp;gt;&lt;br&gt;&lt;b&gt;CtrlCandidate&lt;/b&gt;" style="swimlane;fontStyle=0;align=center;verticalAlign=top;childLayout=stackLayout;horizontal=1;startSize=55;horizontalStack=0;resizeParent=1;resizeParentMax=0;resizeLast=0;collapsible=0;marginBottom=0;html=1;whiteSpace=wrap;" parent="1" vertex="1">
          <mxGeometry x="560" y="37" width="150" height="123" as="geometry" />
        </mxCell>
        <mxCell id="j9k23hoewVzHL0nU_-3v-9" value="" style="line;strokeWidth=1;align=left;verticalAlign=middle;spacingTop=-1;spacingLeft=3;spacingRight=3;rotatable=0;labelPosition=right;points=[];portConstraint=eastwest;" parent="j9k23hoewVzHL0nU_-3v-8" vertex="1">
          <mxGeometry y="55" width="150" height="8" as="geometry" />
        </mxCell>
        <mxCell id="j9k23hoewVzHL0nU_-3v-10" value="getAllCandidate()" style="text;html=1;align=left;verticalAlign=middle;spacingLeft=4;spacingRight=4;overflow=hidden;rotatable=0;points=[[0,0.5],[1,0.5]];portConstraint=eastwest;whiteSpace=wrap;" parent="j9k23hoewVzHL0nU_-3v-8" vertex="1">
          <mxGeometry y="63" width="150" height="20" as="geometry" />
        </mxCell>
        <mxCell id="xIWGj_7B2mutlKnrKTba-10" value="getevenementActif()" style="text;html=1;align=left;verticalAlign=middle;spacingLeft=4;spacingRight=4;overflow=hidden;rotatable=0;points=[[0,0.5],[1,0.5]];portConstraint=eastwest;whiteSpace=wrap;" vertex="1" parent="j9k23hoewVzHL0nU_-3v-8">
          <mxGeometry y="83" width="150" height="20" as="geometry" />
        </mxCell>
        <mxCell id="60iPmdZbXNaLYte4w0l6-5" value="voter()" style="text;html=1;align=left;verticalAlign=middle;spacingLeft=4;spacingRight=4;overflow=hidden;rotatable=0;points=[[0,0.5],[1,0.5]];portConstraint=eastwest;whiteSpace=wrap;" parent="j9k23hoewVzHL0nU_-3v-8" vertex="1">
          <mxGeometry y="103" width="150" height="20" as="geometry" />
        </mxCell>
        <mxCell id="j9k23hoewVzHL0nU_-3v-20" value="&amp;lt;&amp;lt;entité&amp;gt;&amp;gt;&lt;br&gt;&lt;b&gt;Transaction&lt;/b&gt;" style="swimlane;fontStyle=0;align=center;verticalAlign=top;childLayout=stackLayout;horizontal=1;startSize=55;horizontalStack=0;resizeParent=1;resizeParentMax=0;resizeLast=0;collapsible=0;marginBottom=0;html=1;whiteSpace=wrap;" parent="1" vertex="1">
          <mxGeometry x="970" y="523" width="140" height="123" as="geometry" />
        </mxCell>
        <mxCell id="j9k23hoewVzHL0nU_-3v-21" value="attributes" style="text;html=1;align=center;verticalAlign=middle;spacingLeft=4;spacingRight=4;overflow=hidden;rotatable=0;points=[[0,0.5],[1,0.5]];portConstraint=eastwest;whiteSpace=wrap;" parent="j9k23hoewVzHL0nU_-3v-20" vertex="1">
          <mxGeometry y="55" width="140" height="20" as="geometry" />
        </mxCell>
        <mxCell id="j9k23hoewVzHL0nU_-3v-22" value="id:int" style="text;html=1;align=left;verticalAlign=middle;spacingLeft=4;spacingRight=4;overflow=hidden;rotatable=0;points=[[0,0.5],[1,0.5]];portConstraint=eastwest;whiteSpace=wrap;" parent="j9k23hoewVzHL0nU_-3v-20" vertex="1">
          <mxGeometry y="75" width="140" height="20" as="geometry" />
        </mxCell>
        <mxCell id="j9k23hoewVzHL0nU_-3v-28" value="..." style="text;html=1;align=left;verticalAlign=middle;spacingLeft=4;spacingRight=4;overflow=hidden;rotatable=0;points=[[0,0.5],[1,0.5]];portConstraint=eastwest;whiteSpace=wrap;" parent="j9k23hoewVzHL0nU_-3v-20" vertex="1">
          <mxGeometry y="95" width="140" height="20" as="geometry" />
        </mxCell>
        <mxCell id="j9k23hoewVzHL0nU_-3v-29" value="" style="line;strokeWidth=1;align=left;verticalAlign=middle;spacingTop=-1;spacingLeft=3;spacingRight=3;rotatable=0;labelPosition=right;points=[];portConstraint=eastwest;" parent="j9k23hoewVzHL0nU_-3v-20" vertex="1">
          <mxGeometry y="115" width="140" height="8" as="geometry" />
        </mxCell>
        <mxCell id="j9k23hoewVzHL0nU_-3v-30" value="" style="endArrow=none;startArrow=none;endFill=0;startFill=0;endSize=8;html=1;verticalAlign=bottom;labelBackgroundColor=none;strokeWidth=3;rounded=0;" parent="1" source="j9k23hoewVzHL0nU_-3v-8" target="j9k23hoewVzHL0nU_-3v-20" edge="1">
          <mxGeometry width="160" relative="1" as="geometry">
            <mxPoint x="800" y="350" as="sourcePoint" />
            <mxPoint x="960" y="350" as="targetPoint" />
            <Array as="points" />
          </mxGeometry>
        </mxCell>
        <mxCell id="j9k23hoewVzHL0nU_-3v-40" value="&amp;lt;&amp;lt;entité&amp;gt;&amp;gt;&lt;br&gt;&lt;b&gt;Candidate&lt;/b&gt;" style="swimlane;fontStyle=0;align=center;verticalAlign=top;childLayout=stackLayout;horizontal=1;startSize=55;horizontalStack=0;resizeParent=1;resizeParentMax=0;resizeLast=0;collapsible=0;marginBottom=0;html=1;whiteSpace=wrap;" parent="1" vertex="1">
          <mxGeometry x="970" y="-100" width="150" height="443" as="geometry" />
        </mxCell>
        <mxCell id="j9k23hoewVzHL0nU_-3v-41" value="attributes" style="text;html=1;align=center;verticalAlign=middle;spacingLeft=4;spacingRight=4;overflow=hidden;rotatable=0;points=[[0,0.5],[1,0.5]];portConstraint=eastwest;whiteSpace=wrap;" parent="j9k23hoewVzHL0nU_-3v-40" vertex="1">
          <mxGeometry y="55" width="150" height="20" as="geometry" />
        </mxCell>
        <mxCell id="j9k23hoewVzHL0nU_-3v-42" value="id:int" style="text;html=1;align=left;verticalAlign=middle;spacingLeft=4;spacingRight=4;overflow=hidden;rotatable=0;points=[[0,0.5],[1,0.5]];portConstraint=eastwest;whiteSpace=wrap;" parent="j9k23hoewVzHL0nU_-3v-40" vertex="1">
          <mxGeometry y="75" width="150" height="20" as="geometry" />
        </mxCell>
        <mxCell id="xIWGj_7B2mutlKnrKTba-32" value="nom:string" style="text;html=1;align=left;verticalAlign=middle;spacingLeft=4;spacingRight=4;overflow=hidden;rotatable=0;points=[[0,0.5],[1,0.5]];portConstraint=eastwest;whiteSpace=wrap;" vertex="1" parent="j9k23hoewVzHL0nU_-3v-40">
          <mxGeometry y="95" width="150" height="20" as="geometry" />
        </mxCell>
        <mxCell id="xIWGj_7B2mutlKnrKTba-33" value="prenom:string" style="text;html=1;align=left;verticalAlign=middle;spacingLeft=4;spacingRight=4;overflow=hidden;rotatable=0;points=[[0,0.5],[1,0.5]];portConstraint=eastwest;whiteSpace=wrap;" vertex="1" parent="j9k23hoewVzHL0nU_-3v-40">
          <mxGeometry y="115" width="150" height="20" as="geometry" />
        </mxCell>
        <mxCell id="xIWGj_7B2mutlKnrKTba-34" value="datenaissance:date" style="text;html=1;align=left;verticalAlign=middle;spacingLeft=4;spacingRight=4;overflow=hidden;rotatable=0;points=[[0,0.5],[1,0.5]];portConstraint=eastwest;whiteSpace=wrap;" vertex="1" parent="j9k23hoewVzHL0nU_-3v-40">
          <mxGeometry y="135" width="150" height="20" as="geometry" />
        </mxCell>
        <mxCell id="xIWGj_7B2mutlKnrKTba-35" value="nombrevoix:int" style="text;html=1;align=left;verticalAlign=middle;spacingLeft=4;spacingRight=4;overflow=hidden;rotatable=0;points=[[0,0.5],[1,0.5]];portConstraint=eastwest;whiteSpace=wrap;" vertex="1" parent="j9k23hoewVzHL0nU_-3v-40">
          <mxGeometry y="155" width="150" height="20" as="geometry" />
        </mxCell>
        <mxCell id="xIWGj_7B2mutlKnrKTba-36" value="pourcentagevoix:double" style="text;html=1;align=left;verticalAlign=middle;spacingLeft=4;spacingRight=4;overflow=hidden;rotatable=0;points=[[0,0.5],[1,0.5]];portConstraint=eastwest;whiteSpace=wrap;" vertex="1" parent="j9k23hoewVzHL0nU_-3v-40">
          <mxGeometry y="175" width="150" height="20" as="geometry" />
        </mxCell>
        <mxCell id="xIWGj_7B2mutlKnrKTba-37" value="quartier:string" style="text;html=1;align=left;verticalAlign=middle;spacingLeft=4;spacingRight=4;overflow=hidden;rotatable=0;points=[[0,0.5],[1,0.5]];portConstraint=eastwest;whiteSpace=wrap;" vertex="1" parent="j9k23hoewVzHL0nU_-3v-40">
          <mxGeometry y="195" width="150" height="20" as="geometry" />
        </mxCell>
        <mxCell id="xIWGj_7B2mutlKnrKTba-38" value="region:string" style="text;html=1;align=left;verticalAlign=middle;spacingLeft=4;spacingRight=4;overflow=hidden;rotatable=0;points=[[0,0.5],[1,0.5]];portConstraint=eastwest;whiteSpace=wrap;" vertex="1" parent="j9k23hoewVzHL0nU_-3v-40">
          <mxGeometry y="215" width="150" height="25" as="geometry" />
        </mxCell>
        <mxCell id="xIWGj_7B2mutlKnrKTba-39" value="contact:string" style="text;html=1;align=left;verticalAlign=middle;spacingLeft=4;spacingRight=4;overflow=hidden;rotatable=0;points=[[0,0.5],[1,0.5]];portConstraint=eastwest;whiteSpace=wrap;" vertex="1" parent="j9k23hoewVzHL0nU_-3v-40">
          <mxGeometry y="240" width="150" height="25" as="geometry" />
        </mxCell>
        <mxCell id="xIWGj_7B2mutlKnrKTba-40" value="code:string" style="text;html=1;align=left;verticalAlign=middle;spacingLeft=4;spacingRight=4;overflow=hidden;rotatable=0;points=[[0,0.5],[1,0.5]];portConstraint=eastwest;whiteSpace=wrap;" vertex="1" parent="j9k23hoewVzHL0nU_-3v-40">
          <mxGeometry y="265" width="150" height="25" as="geometry" />
        </mxCell>
        <mxCell id="xIWGj_7B2mutlKnrKTba-41" value="enable:boolean" style="text;html=1;align=left;verticalAlign=middle;spacingLeft=4;spacingRight=4;overflow=hidden;rotatable=0;points=[[0,0.5],[1,0.5]];portConstraint=eastwest;whiteSpace=wrap;" vertex="1" parent="j9k23hoewVzHL0nU_-3v-40">
          <mxGeometry y="290" width="150" height="25" as="geometry" />
        </mxCell>
        <mxCell id="xIWGj_7B2mutlKnrKTba-42" value="biographie:string" style="text;html=1;align=left;verticalAlign=middle;spacingLeft=4;spacingRight=4;overflow=hidden;rotatable=0;points=[[0,0.5],[1,0.5]];portConstraint=eastwest;whiteSpace=wrap;" vertex="1" parent="j9k23hoewVzHL0nU_-3v-40">
          <mxGeometry y="315" width="150" height="25" as="geometry" />
        </mxCell>
        <mxCell id="xIWGj_7B2mutlKnrKTba-44" value="age:int" style="text;html=1;align=left;verticalAlign=middle;spacingLeft=4;spacingRight=4;overflow=hidden;rotatable=0;points=[[0,0.5],[1,0.5]];portConstraint=eastwest;whiteSpace=wrap;" vertex="1" parent="j9k23hoewVzHL0nU_-3v-40">
          <mxGeometry y="340" width="150" height="25" as="geometry" />
        </mxCell>
        <mxCell id="xIWGj_7B2mutlKnrKTba-45" value="numeropassage:int" style="text;html=1;align=left;verticalAlign=middle;spacingLeft=4;spacingRight=4;overflow=hidden;rotatable=0;points=[[0,0.5],[1,0.5]];portConstraint=eastwest;whiteSpace=wrap;" vertex="1" parent="j9k23hoewVzHL0nU_-3v-40">
          <mxGeometry y="365" width="150" height="25" as="geometry" />
        </mxCell>
        <mxCell id="xIWGj_7B2mutlKnrKTba-46" value="voteurl:string" style="text;html=1;align=left;verticalAlign=middle;spacingLeft=4;spacingRight=4;overflow=hidden;rotatable=0;points=[[0,0.5],[1,0.5]];portConstraint=eastwest;whiteSpace=wrap;" vertex="1" parent="j9k23hoewVzHL0nU_-3v-40">
          <mxGeometry y="390" width="150" height="25" as="geometry" />
        </mxCell>
        <mxCell id="xIWGj_7B2mutlKnrKTba-47" value="&lt;span style=&quot;background-color: initial;&quot;&gt;estactif:boolean&lt;/span&gt;" style="text;html=1;align=left;verticalAlign=middle;spacingLeft=4;spacingRight=4;overflow=hidden;rotatable=0;points=[[0,0.5],[1,0.5]];portConstraint=eastwest;whiteSpace=wrap;" vertex="1" parent="j9k23hoewVzHL0nU_-3v-40">
          <mxGeometry y="415" width="150" height="20" as="geometry" />
        </mxCell>
        <mxCell id="j9k23hoewVzHL0nU_-3v-51" value="" style="line;strokeWidth=1;align=left;verticalAlign=middle;spacingTop=-1;spacingLeft=3;spacingRight=3;rotatable=0;labelPosition=right;points=[];portConstraint=eastwest;" parent="j9k23hoewVzHL0nU_-3v-40" vertex="1">
          <mxGeometry y="435" width="150" height="8" as="geometry" />
        </mxCell>
        <mxCell id="j9k23hoewVzHL0nU_-3v-52" value="" style="endArrow=none;startArrow=none;endFill=0;startFill=0;endSize=8;html=1;verticalAlign=bottom;labelBackgroundColor=none;strokeWidth=3;rounded=0;" parent="1" source="j9k23hoewVzHL0nU_-3v-8" target="j9k23hoewVzHL0nU_-3v-40" edge="1">
          <mxGeometry width="160" relative="1" as="geometry">
            <mxPoint x="690" y="430" as="sourcePoint" />
            <mxPoint x="850" y="430" as="targetPoint" />
            <Array as="points" />
          </mxGeometry>
        </mxCell>
        <mxCell id="60iPmdZbXNaLYte4w0l6-1" value="CLIENT" style="shape=umlActor;verticalLabelPosition=bottom;verticalAlign=top;html=1;" parent="1" vertex="1">
          <mxGeometry x="-30" y="212.5" width="30" height="60" as="geometry" />
        </mxCell>
        <mxCell id="60iPmdZbXNaLYte4w0l6-6" value="&amp;lt;&amp;lt;dialogue&amp;gt;&amp;gt;&lt;br&gt;&lt;b&gt;PageQuiSommesNous&lt;/b&gt;" style="swimlane;fontStyle=0;align=center;verticalAlign=top;childLayout=stackLayout;horizontal=1;startSize=55;horizontalStack=0;resizeParent=1;resizeParentMax=0;resizeLast=0;collapsible=0;marginBottom=0;html=1;whiteSpace=wrap;" parent="1" vertex="1">
          <mxGeometry x="370" y="440" width="210" height="105" as="geometry" />
        </mxCell>
        <mxCell id="60iPmdZbXNaLYte4w0l6-7" value="présentation" style="text;html=1;align=left;verticalAlign=middle;spacingLeft=4;spacingRight=4;overflow=hidden;rotatable=0;points=[[0,0.5],[1,0.5]];portConstraint=eastwest;whiteSpace=wrap;" parent="60iPmdZbXNaLYte4w0l6-6" vertex="1">
          <mxGeometry y="55" width="210" height="20" as="geometry" />
        </mxCell>
        <mxCell id="60iPmdZbXNaLYte4w0l6-8" value="" style="line;strokeWidth=1;align=left;verticalAlign=middle;spacingTop=-1;spacingLeft=3;spacingRight=3;rotatable=0;labelPosition=right;points=[];portConstraint=eastwest;" parent="60iPmdZbXNaLYte4w0l6-6" vertex="1">
          <mxGeometry y="75" width="210" height="30" as="geometry" />
        </mxCell>
        <mxCell id="60iPmdZbXNaLYte4w0l6-12" value="" style="endArrow=none;startArrow=none;endFill=0;startFill=0;endSize=8;html=1;verticalAlign=bottom;labelBackgroundColor=none;strokeWidth=3;rounded=0;" parent="1" source="j9k23hoewVzHL0nU_-3v-1" target="60iPmdZbXNaLYte4w0l6-6" edge="1">
          <mxGeometry width="160" relative="1" as="geometry">
            <mxPoint x="172.5" y="480" as="sourcePoint" />
            <mxPoint x="397.5" y="502" as="targetPoint" />
          </mxGeometry>
        </mxCell>
        <mxCell id="60iPmdZbXNaLYte4w0l6-13" value="&amp;lt;&amp;lt;dialogue&amp;gt;&amp;gt;&lt;br&gt;&lt;b&gt;PageCandidates&lt;/b&gt;&lt;div&gt;&lt;b&gt;&lt;br&gt;&lt;/b&gt;&lt;/div&gt;" style="swimlane;fontStyle=0;align=center;verticalAlign=top;childLayout=stackLayout;horizontal=1;startSize=55;horizontalStack=0;resizeParent=1;resizeParentMax=0;resizeLast=0;collapsible=0;marginBottom=0;html=1;whiteSpace=wrap;" parent="1" vertex="1">
          <mxGeometry x="180" y="-70" width="210" height="165" as="geometry" />
        </mxCell>
        <mxCell id="60iPmdZbXNaLYte4w0l6-14" value="&amp;lt;&amp;lt;resultatCandidate&amp;gt;&amp;gt; listCandidate" style="text;html=1;align=left;verticalAlign=middle;spacingLeft=4;spacingRight=4;overflow=hidden;rotatable=0;points=[[0,0.5],[1,0.5]];portConstraint=eastwest;whiteSpace=wrap;" parent="60iPmdZbXNaLYte4w0l6-13" vertex="1">
          <mxGeometry y="55" width="210" height="20" as="geometry" />
        </mxCell>
        <mxCell id="60iPmdZbXNaLYte4w0l6-15" value="" style="line;strokeWidth=1;align=left;verticalAlign=middle;spacingTop=-1;spacingLeft=3;spacingRight=3;rotatable=0;labelPosition=right;points=[];portConstraint=eastwest;" parent="60iPmdZbXNaLYte4w0l6-13" vertex="1">
          <mxGeometry y="75" width="210" height="30" as="geometry" />
        </mxCell>
        <mxCell id="xIWGj_7B2mutlKnrKTba-8" value="getAllCandidate&lt;span style=&quot;background-color: initial;&quot;&gt;()&lt;/span&gt;" style="text;html=1;align=left;verticalAlign=middle;spacingLeft=4;spacingRight=4;overflow=hidden;rotatable=0;points=[[0,0.5],[1,0.5]];portConstraint=eastwest;whiteSpace=wrap;" vertex="1" parent="60iPmdZbXNaLYte4w0l6-13">
          <mxGeometry y="105" width="210" height="20" as="geometry" />
        </mxCell>
        <mxCell id="xIWGj_7B2mutlKnrKTba-11" value="getevenementActif()" style="text;html=1;align=left;verticalAlign=middle;spacingLeft=4;spacingRight=4;overflow=hidden;rotatable=0;points=[[0,0.5],[1,0.5]];portConstraint=eastwest;whiteSpace=wrap;" vertex="1" parent="60iPmdZbXNaLYte4w0l6-13">
          <mxGeometry y="125" width="210" height="20" as="geometry" />
        </mxCell>
        <mxCell id="xIWGj_7B2mutlKnrKTba-1" value="detailCandidate&lt;span style=&quot;background-color: initial;&quot;&gt;()&lt;/span&gt;" style="text;html=1;align=left;verticalAlign=middle;spacingLeft=4;spacingRight=4;overflow=hidden;rotatable=0;points=[[0,0.5],[1,0.5]];portConstraint=eastwest;whiteSpace=wrap;" vertex="1" parent="60iPmdZbXNaLYte4w0l6-13">
          <mxGeometry y="145" width="210" height="20" as="geometry" />
        </mxCell>
        <mxCell id="60iPmdZbXNaLYte4w0l6-19" value="" style="endArrow=none;startArrow=none;endFill=0;startFill=0;endSize=8;html=1;verticalAlign=bottom;labelBackgroundColor=none;strokeWidth=3;rounded=0;" parent="1" source="60iPmdZbXNaLYte4w0l6-13" target="j9k23hoewVzHL0nU_-3v-1" edge="1">
          <mxGeometry width="160" relative="1" as="geometry">
            <mxPoint x="-35" y="269" as="sourcePoint" />
            <mxPoint x="190" y="258" as="targetPoint" />
          </mxGeometry>
        </mxCell>
        <mxCell id="60iPmdZbXNaLYte4w0l6-20" value="" style="endArrow=none;startArrow=none;endFill=0;startFill=0;endSize=8;html=1;verticalAlign=bottom;labelBackgroundColor=none;strokeWidth=3;rounded=0;" parent="1" source="60iPmdZbXNaLYte4w0l6-13" target="j9k23hoewVzHL0nU_-3v-8" edge="1">
          <mxGeometry width="160" relative="1" as="geometry">
            <mxPoint x="287" y="10" as="sourcePoint" />
            <mxPoint x="292" y="170" as="targetPoint" />
          </mxGeometry>
        </mxCell>
        <mxCell id="60iPmdZbXNaLYte4w0l6-32" value="" style="endArrow=none;startArrow=none;endFill=0;startFill=0;endSize=8;html=1;verticalAlign=bottom;labelBackgroundColor=none;strokeWidth=3;rounded=0;" parent="1" source="j9k23hoewVzHL0nU_-3v-20" target="j9k23hoewVzHL0nU_-3v-40" edge="1">
          <mxGeometry width="160" relative="1" as="geometry">
            <mxPoint x="1061.5" y="325" as="sourcePoint" />
            <mxPoint x="1050" y="70" as="targetPoint" />
            <Array as="points" />
          </mxGeometry>
        </mxCell>
        <mxCell id="xIWGj_7B2mutlKnrKTba-2" value="&amp;lt;&amp;lt;dialogue&amp;gt;&amp;gt;&lt;br&gt;&lt;b&gt;PageDetails&lt;/b&gt;" style="swimlane;fontStyle=0;align=center;verticalAlign=top;childLayout=stackLayout;horizontal=1;startSize=55;horizontalStack=0;resizeParent=1;resizeParentMax=0;resizeLast=0;collapsible=0;marginBottom=0;html=1;whiteSpace=wrap;" vertex="1" parent="1">
          <mxGeometry x="540" y="-340" width="210" height="145" as="geometry" />
        </mxCell>
        <mxCell id="xIWGj_7B2mutlKnrKTba-3" value="&amp;lt;&amp;lt;Candidate&amp;gt;&amp;gt; candidate" style="text;html=1;align=left;verticalAlign=middle;spacingLeft=4;spacingRight=4;overflow=hidden;rotatable=0;points=[[0,0.5],[1,0.5]];portConstraint=eastwest;whiteSpace=wrap;" vertex="1" parent="xIWGj_7B2mutlKnrKTba-2">
          <mxGeometry y="55" width="210" height="20" as="geometry" />
        </mxCell>
        <mxCell id="xIWGj_7B2mutlKnrKTba-4" value="" style="line;strokeWidth=1;align=left;verticalAlign=middle;spacingTop=-1;spacingLeft=3;spacingRight=3;rotatable=0;labelPosition=right;points=[];portConstraint=eastwest;" vertex="1" parent="xIWGj_7B2mutlKnrKTba-2">
          <mxGeometry y="75" width="210" height="30" as="geometry" />
        </mxCell>
        <mxCell id="xIWGj_7B2mutlKnrKTba-5" value="voter()" style="text;html=1;align=left;verticalAlign=middle;spacingLeft=4;spacingRight=4;overflow=hidden;rotatable=0;points=[[0,0.5],[1,0.5]];portConstraint=eastwest;whiteSpace=wrap;" vertex="1" parent="xIWGj_7B2mutlKnrKTba-2">
          <mxGeometry y="105" width="210" height="20" as="geometry" />
        </mxCell>
        <mxCell id="xIWGj_7B2mutlKnrKTba-6" value="copierLien&lt;span style=&quot;background-color: initial;&quot;&gt;()&lt;/span&gt;" style="text;html=1;align=left;verticalAlign=middle;spacingLeft=4;spacingRight=4;overflow=hidden;rotatable=0;points=[[0,0.5],[1,0.5]];portConstraint=eastwest;whiteSpace=wrap;" vertex="1" parent="xIWGj_7B2mutlKnrKTba-2">
          <mxGeometry y="125" width="210" height="20" as="geometry" />
        </mxCell>
        <mxCell id="xIWGj_7B2mutlKnrKTba-7" value="" style="endArrow=none;startArrow=none;endFill=0;startFill=0;endSize=8;html=1;verticalAlign=bottom;labelBackgroundColor=none;strokeWidth=3;rounded=0;" edge="1" parent="1" source="60iPmdZbXNaLYte4w0l6-13" target="xIWGj_7B2mutlKnrKTba-2">
          <mxGeometry width="160" relative="1" as="geometry">
            <mxPoint x="400" y="-100" as="sourcePoint" />
            <mxPoint x="580" y="-95" as="targetPoint" />
          </mxGeometry>
        </mxCell>
        <mxCell id="xIWGj_7B2mutlKnrKTba-9" value="" style="endArrow=none;startArrow=none;endFill=0;startFill=0;endSize=8;html=1;verticalAlign=bottom;labelBackgroundColor=none;strokeWidth=3;rounded=0;" edge="1" parent="1" source="xIWGj_7B2mutlKnrKTba-2" target="j9k23hoewVzHL0nU_-3v-8">
          <mxGeometry width="160" relative="1" as="geometry">
            <mxPoint x="600" y="-130" as="sourcePoint" />
            <mxPoint x="780" y="-125" as="targetPoint" />
          </mxGeometry>
        </mxCell>
        <mxCell id="xIWGj_7B2mutlKnrKTba-12" value="&amp;lt;&amp;lt;entité&amp;gt;&amp;gt;&lt;br&gt;&lt;b&gt;Envenement&lt;/b&gt;" style="swimlane;fontStyle=0;align=center;verticalAlign=top;childLayout=stackLayout;horizontal=1;startSize=55;horizontalStack=0;resizeParent=1;resizeParentMax=0;resizeLast=0;collapsible=0;marginBottom=0;html=1;whiteSpace=wrap;" vertex="1" parent="1">
          <mxGeometry x="970" y="-500" width="140" height="258" as="geometry" />
        </mxCell>
        <mxCell id="xIWGj_7B2mutlKnrKTba-13" value="attributes" style="text;html=1;align=center;verticalAlign=middle;spacingLeft=4;spacingRight=4;overflow=hidden;rotatable=0;points=[[0,0.5],[1,0.5]];portConstraint=eastwest;whiteSpace=wrap;" vertex="1" parent="xIWGj_7B2mutlKnrKTba-12">
          <mxGeometry y="55" width="140" height="20" as="geometry" />
        </mxCell>
        <mxCell id="xIWGj_7B2mutlKnrKTba-14" value="id:int" style="text;html=1;align=left;verticalAlign=middle;spacingLeft=4;spacingRight=4;overflow=hidden;rotatable=0;points=[[0,0.5],[1,0.5]];portConstraint=eastwest;whiteSpace=wrap;" vertex="1" parent="xIWGj_7B2mutlKnrKTba-12">
          <mxGeometry y="75" width="140" height="20" as="geometry" />
        </mxCell>
        <mxCell id="xIWGj_7B2mutlKnrKTba-23" value="datecreation&lt;span style=&quot;background-color: initial;&quot;&gt;:date&lt;/span&gt;" style="text;html=1;align=left;verticalAlign=middle;spacingLeft=4;spacingRight=4;overflow=hidden;rotatable=0;points=[[0,0.5],[1,0.5]];portConstraint=eastwest;whiteSpace=wrap;" vertex="1" parent="xIWGj_7B2mutlKnrKTba-12">
          <mxGeometry y="95" width="140" height="15" as="geometry" />
        </mxCell>
        <mxCell id="xIWGj_7B2mutlKnrKTba-24" value="nom&lt;span style=&quot;background-color: initial;&quot;&gt;:string&lt;/span&gt;" style="text;html=1;align=left;verticalAlign=middle;spacingLeft=4;spacingRight=4;overflow=hidden;rotatable=0;points=[[0,0.5],[1,0.5]];portConstraint=eastwest;whiteSpace=wrap;" vertex="1" parent="xIWGj_7B2mutlKnrKTba-12">
          <mxGeometry y="110" width="140" height="15" as="geometry" />
        </mxCell>
        <mxCell id="xIWGj_7B2mutlKnrKTba-25" value="&lt;span style=&quot;background-color: initial;&quot;&gt;description:text&lt;/span&gt;" style="text;html=1;align=left;verticalAlign=middle;spacingLeft=4;spacingRight=4;overflow=hidden;rotatable=0;points=[[0,0.5],[1,0.5]];portConstraint=eastwest;whiteSpace=wrap;" vertex="1" parent="xIWGj_7B2mutlKnrKTba-12">
          <mxGeometry y="125" width="140" height="15" as="geometry" />
        </mxCell>
        <mxCell id="xIWGj_7B2mutlKnrKTba-26" value="&lt;span style=&quot;background-color: initial;&quot;&gt;datedebut:date&lt;/span&gt;" style="text;html=1;align=left;verticalAlign=middle;spacingLeft=4;spacingRight=4;overflow=hidden;rotatable=0;points=[[0,0.5],[1,0.5]];portConstraint=eastwest;whiteSpace=wrap;" vertex="1" parent="xIWGj_7B2mutlKnrKTba-12">
          <mxGeometry y="140" width="140" height="15" as="geometry" />
        </mxCell>
        <mxCell id="xIWGj_7B2mutlKnrKTba-27" value="&lt;span style=&quot;background-color: initial;&quot;&gt;datefin:date&lt;/span&gt;" style="text;html=1;align=left;verticalAlign=middle;spacingLeft=4;spacingRight=4;overflow=hidden;rotatable=0;points=[[0,0.5],[1,0.5]];portConstraint=eastwest;whiteSpace=wrap;" vertex="1" parent="xIWGj_7B2mutlKnrKTba-12">
          <mxGeometry y="155" width="140" height="15" as="geometry" />
        </mxCell>
        <mxCell id="xIWGj_7B2mutlKnrKTba-28" value="&lt;span style=&quot;background-color: initial;&quot;&gt;imageurl:string&lt;/span&gt;" style="text;html=1;align=left;verticalAlign=middle;spacingLeft=4;spacingRight=4;overflow=hidden;rotatable=0;points=[[0,0.5],[1,0.5]];portConstraint=eastwest;whiteSpace=wrap;" vertex="1" parent="xIWGj_7B2mutlKnrKTba-12">
          <mxGeometry y="170" width="140" height="20" as="geometry" />
        </mxCell>
        <mxCell id="xIWGj_7B2mutlKnrKTba-29" value="&lt;span style=&quot;background-color: initial;&quot;&gt;enable:boolean&lt;/span&gt;" style="text;html=1;align=left;verticalAlign=middle;spacingLeft=4;spacingRight=4;overflow=hidden;rotatable=0;points=[[0,0.5],[1,0.5]];portConstraint=eastwest;whiteSpace=wrap;" vertex="1" parent="xIWGj_7B2mutlKnrKTba-12">
          <mxGeometry y="190" width="140" height="20" as="geometry" />
        </mxCell>
        <mxCell id="xIWGj_7B2mutlKnrKTba-30" value="&lt;span style=&quot;background-color: initial;&quot;&gt;estactif:boolean&lt;/span&gt;" style="text;html=1;align=left;verticalAlign=middle;spacingLeft=4;spacingRight=4;overflow=hidden;rotatable=0;points=[[0,0.5],[1,0.5]];portConstraint=eastwest;whiteSpace=wrap;" vertex="1" parent="xIWGj_7B2mutlKnrKTba-12">
          <mxGeometry y="210" width="140" height="20" as="geometry" />
        </mxCell>
        <mxCell id="xIWGj_7B2mutlKnrKTba-31" value="&lt;span style=&quot;background-color: initial;&quot;&gt;prixvote:integer&lt;/span&gt;" style="text;html=1;align=left;verticalAlign=middle;spacingLeft=4;spacingRight=4;overflow=hidden;rotatable=0;points=[[0,0.5],[1,0.5]];portConstraint=eastwest;whiteSpace=wrap;" vertex="1" parent="xIWGj_7B2mutlKnrKTba-12">
          <mxGeometry y="230" width="140" height="20" as="geometry" />
        </mxCell>
        <mxCell id="xIWGj_7B2mutlKnrKTba-16" value="" style="line;strokeWidth=1;align=left;verticalAlign=middle;spacingTop=-1;spacingLeft=3;spacingRight=3;rotatable=0;labelPosition=right;points=[];portConstraint=eastwest;" vertex="1" parent="xIWGj_7B2mutlKnrKTba-12">
          <mxGeometry y="250" width="140" height="8" as="geometry" />
        </mxCell>
        <mxCell id="xIWGj_7B2mutlKnrKTba-17" value="" style="endArrow=none;startArrow=none;endFill=0;startFill=0;endSize=8;html=1;verticalAlign=bottom;labelBackgroundColor=none;strokeWidth=3;rounded=0;" edge="1" parent="1" source="j9k23hoewVzHL0nU_-3v-8" target="xIWGj_7B2mutlKnrKTba-12">
          <mxGeometry width="160" relative="1" as="geometry">
            <mxPoint x="730" y="-60" as="sourcePoint" />
            <mxPoint x="920" y="-60" as="targetPoint" />
            <Array as="points" />
          </mxGeometry>
        </mxCell>
        <mxCell id="xIWGj_7B2mutlKnrKTba-18" value="&amp;lt;&amp;lt;dialogue&amp;gt;&amp;gt;&lt;br&gt;&lt;b&gt;PageInfoConcour&lt;/b&gt;" style="swimlane;fontStyle=0;align=center;verticalAlign=top;childLayout=stackLayout;horizontal=1;startSize=55;horizontalStack=0;resizeParent=1;resizeParentMax=0;resizeLast=0;collapsible=0;marginBottom=0;html=1;whiteSpace=wrap;" vertex="1" parent="1">
          <mxGeometry x="70" y="440" width="210" height="105" as="geometry" />
        </mxCell>
        <mxCell id="xIWGj_7B2mutlKnrKTba-19" value="présentation" style="text;html=1;align=left;verticalAlign=middle;spacingLeft=4;spacingRight=4;overflow=hidden;rotatable=0;points=[[0,0.5],[1,0.5]];portConstraint=eastwest;whiteSpace=wrap;" vertex="1" parent="xIWGj_7B2mutlKnrKTba-18">
          <mxGeometry y="55" width="210" height="20" as="geometry" />
        </mxCell>
        <mxCell id="xIWGj_7B2mutlKnrKTba-20" value="" style="line;strokeWidth=1;align=left;verticalAlign=middle;spacingTop=-1;spacingLeft=3;spacingRight=3;rotatable=0;labelPosition=right;points=[];portConstraint=eastwest;" vertex="1" parent="xIWGj_7B2mutlKnrKTba-18">
          <mxGeometry y="75" width="210" height="30" as="geometry" />
        </mxCell>
        <mxCell id="xIWGj_7B2mutlKnrKTba-21" value="" style="endArrow=none;startArrow=none;endFill=0;startFill=0;endSize=8;html=1;verticalAlign=bottom;labelBackgroundColor=none;strokeWidth=3;rounded=0;" edge="1" parent="1" source="j9k23hoewVzHL0nU_-3v-1" target="xIWGj_7B2mutlKnrKTba-18">
          <mxGeometry width="160" relative="1" as="geometry">
            <mxPoint x="280" y="324" as="sourcePoint" />
            <mxPoint x="445" y="449" as="targetPoint" />
          </mxGeometry>
        </mxCell>
        <mxCell id="xIWGj_7B2mutlKnrKTba-48" value="&amp;lt;&amp;lt;entité&amp;gt;&amp;gt;&lt;br&gt;&lt;b&gt;Photo&lt;/b&gt;" style="swimlane;fontStyle=0;align=center;verticalAlign=top;childLayout=stackLayout;horizontal=1;startSize=55;horizontalStack=0;resizeParent=1;resizeParentMax=0;resizeLast=0;collapsible=0;marginBottom=0;html=1;whiteSpace=wrap;" vertex="1" parent="1">
          <mxGeometry x="1241" y="50" width="140" height="148" as="geometry" />
        </mxCell>
        <mxCell id="xIWGj_7B2mutlKnrKTba-49" value="attributes" style="text;html=1;align=center;verticalAlign=middle;spacingLeft=4;spacingRight=4;overflow=hidden;rotatable=0;points=[[0,0.5],[1,0.5]];portConstraint=eastwest;whiteSpace=wrap;" vertex="1" parent="xIWGj_7B2mutlKnrKTba-48">
          <mxGeometry y="55" width="140" height="20" as="geometry" />
        </mxCell>
        <mxCell id="xIWGj_7B2mutlKnrKTba-50" value="id:int" style="text;html=1;align=left;verticalAlign=middle;spacingLeft=4;spacingRight=4;overflow=hidden;rotatable=0;points=[[0,0.5],[1,0.5]];portConstraint=eastwest;whiteSpace=wrap;" vertex="1" parent="xIWGj_7B2mutlKnrKTba-48">
          <mxGeometry y="75" width="140" height="20" as="geometry" />
        </mxCell>
        <mxCell id="xIWGj_7B2mutlKnrKTba-53" value="url:string" style="text;html=1;align=left;verticalAlign=middle;spacingLeft=4;spacingRight=4;overflow=hidden;rotatable=0;points=[[0,0.5],[1,0.5]];portConstraint=eastwest;whiteSpace=wrap;" vertex="1" parent="xIWGj_7B2mutlKnrKTba-48">
          <mxGeometry y="95" width="140" height="25" as="geometry" />
        </mxCell>
        <mxCell id="xIWGj_7B2mutlKnrKTba-51" value="datecreation:date" style="text;html=1;align=left;verticalAlign=middle;spacingLeft=4;spacingRight=4;overflow=hidden;rotatable=0;points=[[0,0.5],[1,0.5]];portConstraint=eastwest;whiteSpace=wrap;" vertex="1" parent="xIWGj_7B2mutlKnrKTba-48">
          <mxGeometry y="120" width="140" height="20" as="geometry" />
        </mxCell>
        <mxCell id="xIWGj_7B2mutlKnrKTba-52" value="" style="line;strokeWidth=1;align=left;verticalAlign=middle;spacingTop=-1;spacingLeft=3;spacingRight=3;rotatable=0;labelPosition=right;points=[];portConstraint=eastwest;" vertex="1" parent="xIWGj_7B2mutlKnrKTba-48">
          <mxGeometry y="140" width="140" height="8" as="geometry" />
        </mxCell>
        <mxCell id="xIWGj_7B2mutlKnrKTba-54" value="" style="endArrow=none;startArrow=none;endFill=0;startFill=0;endSize=8;html=1;verticalAlign=bottom;labelBackgroundColor=none;strokeWidth=3;rounded=0;" edge="1" parent="1" source="j9k23hoewVzHL0nU_-3v-40" target="xIWGj_7B2mutlKnrKTba-48">
          <mxGeometry width="160" relative="1" as="geometry">
            <mxPoint x="1250" y="180" as="sourcePoint" />
            <mxPoint x="1510" y="194" as="targetPoint" />
            <Array as="points" />
          </mxGeometry>
        </mxCell>
        <mxCell id="xIWGj_7B2mutlKnrKTba-55" value="" style="endArrow=none;startArrow=none;endFill=0;startFill=0;endSize=8;html=1;verticalAlign=bottom;labelBackgroundColor=none;strokeWidth=3;rounded=0;" edge="1" parent="1" source="j9k23hoewVzHL0nU_-3v-40" target="xIWGj_7B2mutlKnrKTba-12">
          <mxGeometry width="160" relative="1" as="geometry">
            <mxPoint x="850" y="67" as="sourcePoint" />
            <mxPoint x="1132" y="-260" as="targetPoint" />
            <Array as="points" />
          </mxGeometry>
        </mxCell>
      </root>
    </mxGraphModel>
  </diagram>
  <diagram id="jByiORS1Pv8X4yAuy5Xf" name="DCP-GESTION-CANDIDATE">
    <mxGraphModel dx="2074" dy="687" grid="1" gridSize="10" guides="1" tooltips="1" connect="1" arrows="1" fold="1" page="1" pageScale="1" pageWidth="827" pageHeight="1169" math="0" shadow="0">
      <root>
        <mxCell id="0" />
        <mxCell id="1" parent="0" />
        <mxCell id="n35mn5685NhTqZl_QUbR-1" value="&amp;lt;&amp;lt;dialogue&amp;gt;&amp;gt;&lt;br&gt;&lt;b&gt;PageGestionCandidate&lt;/b&gt;" style="swimlane;fontStyle=0;align=center;verticalAlign=top;childLayout=stackLayout;horizontal=1;startSize=55;horizontalStack=0;resizeParent=1;resizeParentMax=0;resizeLast=0;collapsible=0;marginBottom=0;html=1;whiteSpace=wrap;" vertex="1" parent="1">
          <mxGeometry x="180" y="160" width="210" height="145" as="geometry" />
        </mxCell>
        <mxCell id="n35mn5685NhTqZl_QUbR-2" value="&amp;lt;&amp;lt;resultatCandidate&amp;gt;&amp;gt; listCandidate" style="text;html=1;align=left;verticalAlign=middle;spacingLeft=4;spacingRight=4;overflow=hidden;rotatable=0;points=[[0,0.5],[1,0.5]];portConstraint=eastwest;whiteSpace=wrap;" vertex="1" parent="n35mn5685NhTqZl_QUbR-1">
          <mxGeometry y="55" width="210" height="20" as="geometry" />
        </mxCell>
        <mxCell id="n35mn5685NhTqZl_QUbR-3" value="" style="line;strokeWidth=1;align=left;verticalAlign=middle;spacingTop=-1;spacingLeft=3;spacingRight=3;rotatable=0;labelPosition=right;points=[];portConstraint=eastwest;" vertex="1" parent="n35mn5685NhTqZl_QUbR-1">
          <mxGeometry y="75" width="210" height="30" as="geometry" />
        </mxCell>
        <mxCell id="n35mn5685NhTqZl_QUbR-4" value="consulterDetail" style="text;html=1;align=left;verticalAlign=middle;spacingLeft=4;spacingRight=4;overflow=hidden;rotatable=0;points=[[0,0.5],[1,0.5]];portConstraint=eastwest;whiteSpace=wrap;" vertex="1" parent="n35mn5685NhTqZl_QUbR-1">
          <mxGeometry y="105" width="210" height="20" as="geometry" />
        </mxCell>
        <mxCell id="e-bcIriObons0osxjglr-1" value="gererCandidate" style="text;html=1;align=left;verticalAlign=middle;spacingLeft=4;spacingRight=4;overflow=hidden;rotatable=0;points=[[0,0.5],[1,0.5]];portConstraint=eastwest;whiteSpace=wrap;" vertex="1" parent="n35mn5685NhTqZl_QUbR-1">
          <mxGeometry y="125" width="210" height="20" as="geometry" />
        </mxCell>
        <mxCell id="n35mn5685NhTqZl_QUbR-7" value="" style="endArrow=none;startArrow=none;endFill=0;startFill=0;endSize=8;html=1;verticalAlign=bottom;labelBackgroundColor=none;strokeWidth=3;rounded=0;" edge="1" parent="1" source="n35mn5685NhTqZl_QUbR-25" target="n35mn5685NhTqZl_QUbR-1">
          <mxGeometry width="160" relative="1" as="geometry">
            <mxPoint x="-20" y="270" as="sourcePoint" />
            <mxPoint x="460" y="330" as="targetPoint" />
          </mxGeometry>
        </mxCell>
        <mxCell id="n35mn5685NhTqZl_QUbR-8" value="&amp;lt;&amp;lt;contrôle&amp;gt;&amp;gt;&lt;br&gt;&lt;b&gt;CtrlGestionCandidate&lt;/b&gt;" style="swimlane;fontStyle=0;align=center;verticalAlign=top;childLayout=stackLayout;horizontal=1;startSize=55;horizontalStack=0;resizeParent=1;resizeParentMax=0;resizeLast=0;collapsible=0;marginBottom=0;html=1;whiteSpace=wrap;" vertex="1" parent="1">
          <mxGeometry x="540" y="122.5" width="150" height="150" as="geometry" />
        </mxCell>
        <mxCell id="n35mn5685NhTqZl_QUbR-9" value="" style="line;strokeWidth=1;align=left;verticalAlign=middle;spacingTop=-1;spacingLeft=3;spacingRight=3;rotatable=0;labelPosition=right;points=[];portConstraint=eastwest;" vertex="1" parent="n35mn5685NhTqZl_QUbR-8">
          <mxGeometry y="55" width="150" height="8" as="geometry" />
        </mxCell>
        <mxCell id="n35mn5685NhTqZl_QUbR-10" value="getAllCandidate()" style="text;html=1;align=left;verticalAlign=middle;spacingLeft=4;spacingRight=4;overflow=hidden;rotatable=0;points=[[0,0.5],[1,0.5]];portConstraint=eastwest;whiteSpace=wrap;" vertex="1" parent="n35mn5685NhTqZl_QUbR-8">
          <mxGeometry y="63" width="150" height="20" as="geometry" />
        </mxCell>
        <mxCell id="n35mn5685NhTqZl_QUbR-11" value="AjouterCandidate()" style="text;html=1;align=left;verticalAlign=middle;spacingLeft=4;spacingRight=4;overflow=hidden;rotatable=0;points=[[0,0.5],[1,0.5]];portConstraint=eastwest;whiteSpace=wrap;" vertex="1" parent="n35mn5685NhTqZl_QUbR-8">
          <mxGeometry y="83" width="150" height="20" as="geometry" />
        </mxCell>
        <mxCell id="e-bcIriObons0osxjglr-2" value="SupprimerCandidate()" style="text;html=1;align=left;verticalAlign=middle;spacingLeft=4;spacingRight=4;overflow=hidden;rotatable=0;points=[[0,0.5],[1,0.5]];portConstraint=eastwest;whiteSpace=wrap;" vertex="1" parent="n35mn5685NhTqZl_QUbR-8">
          <mxGeometry y="103" width="150" height="20" as="geometry" />
        </mxCell>
        <mxCell id="e-bcIriObons0osxjglr-3" value="ModifierCandidate()" style="text;html=1;align=left;verticalAlign=middle;spacingLeft=4;spacingRight=4;overflow=hidden;rotatable=0;points=[[0,0.5],[1,0.5]];portConstraint=eastwest;whiteSpace=wrap;" vertex="1" parent="n35mn5685NhTqZl_QUbR-8">
          <mxGeometry y="123" width="150" height="27" as="geometry" />
        </mxCell>
        <mxCell id="n35mn5685NhTqZl_QUbR-12" value="" style="endArrow=none;startArrow=none;endFill=0;startFill=0;endSize=8;html=1;verticalAlign=bottom;labelBackgroundColor=none;strokeWidth=3;rounded=0;" edge="1" parent="1" source="n35mn5685NhTqZl_QUbR-1" target="n35mn5685NhTqZl_QUbR-8">
          <mxGeometry width="160" relative="1" as="geometry">
            <mxPoint x="300" y="330" as="sourcePoint" />
            <mxPoint x="460" y="330" as="targetPoint" />
            <Array as="points">
              <mxPoint x="390" y="170" />
            </Array>
          </mxGeometry>
        </mxCell>
        <mxCell id="n35mn5685NhTqZl_QUbR-19" value="&amp;lt;&amp;lt;entité&amp;gt;&amp;gt;&lt;br&gt;&lt;b&gt;Candidate&lt;/b&gt;" style="swimlane;fontStyle=0;align=center;verticalAlign=top;childLayout=stackLayout;horizontal=1;startSize=55;horizontalStack=0;resizeParent=1;resizeParentMax=0;resizeLast=0;collapsible=0;marginBottom=0;html=1;whiteSpace=wrap;" vertex="1" parent="1">
          <mxGeometry x="870" y="103.5" width="140" height="123" as="geometry" />
        </mxCell>
        <mxCell id="n35mn5685NhTqZl_QUbR-20" value="attributes" style="text;html=1;align=center;verticalAlign=middle;spacingLeft=4;spacingRight=4;overflow=hidden;rotatable=0;points=[[0,0.5],[1,0.5]];portConstraint=eastwest;whiteSpace=wrap;" vertex="1" parent="n35mn5685NhTqZl_QUbR-19">
          <mxGeometry y="55" width="140" height="20" as="geometry" />
        </mxCell>
        <mxCell id="n35mn5685NhTqZl_QUbR-21" value="id:int" style="text;html=1;align=left;verticalAlign=middle;spacingLeft=4;spacingRight=4;overflow=hidden;rotatable=0;points=[[0,0.5],[1,0.5]];portConstraint=eastwest;whiteSpace=wrap;" vertex="1" parent="n35mn5685NhTqZl_QUbR-19">
          <mxGeometry y="75" width="140" height="20" as="geometry" />
        </mxCell>
        <mxCell id="n35mn5685NhTqZl_QUbR-22" value="..." style="text;html=1;align=left;verticalAlign=middle;spacingLeft=4;spacingRight=4;overflow=hidden;rotatable=0;points=[[0,0.5],[1,0.5]];portConstraint=eastwest;whiteSpace=wrap;" vertex="1" parent="n35mn5685NhTqZl_QUbR-19">
          <mxGeometry y="95" width="140" height="20" as="geometry" />
        </mxCell>
        <mxCell id="n35mn5685NhTqZl_QUbR-23" value="" style="line;strokeWidth=1;align=left;verticalAlign=middle;spacingTop=-1;spacingLeft=3;spacingRight=3;rotatable=0;labelPosition=right;points=[];portConstraint=eastwest;" vertex="1" parent="n35mn5685NhTqZl_QUbR-19">
          <mxGeometry y="115" width="140" height="8" as="geometry" />
        </mxCell>
        <mxCell id="n35mn5685NhTqZl_QUbR-24" value="" style="endArrow=none;startArrow=none;endFill=0;startFill=0;endSize=8;html=1;verticalAlign=bottom;labelBackgroundColor=none;strokeWidth=3;rounded=0;" edge="1" parent="1" source="n35mn5685NhTqZl_QUbR-8" target="n35mn5685NhTqZl_QUbR-19">
          <mxGeometry width="160" relative="1" as="geometry">
            <mxPoint x="690" y="430" as="sourcePoint" />
            <mxPoint x="850" y="430" as="targetPoint" />
            <Array as="points" />
          </mxGeometry>
        </mxCell>
        <mxCell id="n35mn5685NhTqZl_QUbR-25" value="ADMINISTRATEUR" style="shape=umlActor;verticalLabelPosition=bottom;verticalAlign=top;html=1;" vertex="1" parent="1">
          <mxGeometry x="-30" y="212.5" width="30" height="60" as="geometry" />
        </mxCell>
      </root>
    </mxGraphModel>
  </diagram>
  <diagram id="67KkfPEi9BPIc76IHvSU" name="DCP-GESTION-ADMIN">
    <mxGraphModel dx="2193" dy="752" grid="1" gridSize="10" guides="1" tooltips="1" connect="1" arrows="1" fold="1" page="1" pageScale="1" pageWidth="827" pageHeight="1169" math="0" shadow="0">
      <root>
        <mxCell id="0" />
        <mxCell id="1" parent="0" />
        <mxCell id="DapbEgse4sEi1GCyhj75-1" value="&amp;lt;&amp;lt;dialogue&amp;gt;&amp;gt;&lt;br&gt;&lt;b&gt;PageGestionAdministrateur&lt;/b&gt;" style="swimlane;fontStyle=0;align=center;verticalAlign=top;childLayout=stackLayout;horizontal=1;startSize=55;horizontalStack=0;resizeParent=1;resizeParentMax=0;resizeLast=0;collapsible=0;marginBottom=0;html=1;whiteSpace=wrap;" vertex="1" parent="1">
          <mxGeometry x="180" y="160" width="240" height="145" as="geometry" />
        </mxCell>
        <mxCell id="DapbEgse4sEi1GCyhj75-2" value="&amp;lt;&amp;lt;resultatCandidate&amp;gt;&amp;gt; listAdministrateur" style="text;html=1;align=left;verticalAlign=middle;spacingLeft=4;spacingRight=4;overflow=hidden;rotatable=0;points=[[0,0.5],[1,0.5]];portConstraint=eastwest;whiteSpace=wrap;" vertex="1" parent="DapbEgse4sEi1GCyhj75-1">
          <mxGeometry y="55" width="240" height="20" as="geometry" />
        </mxCell>
        <mxCell id="DapbEgse4sEi1GCyhj75-3" value="" style="line;strokeWidth=1;align=left;verticalAlign=middle;spacingTop=-1;spacingLeft=3;spacingRight=3;rotatable=0;labelPosition=right;points=[];portConstraint=eastwest;" vertex="1" parent="DapbEgse4sEi1GCyhj75-1">
          <mxGeometry y="75" width="240" height="30" as="geometry" />
        </mxCell>
        <mxCell id="DapbEgse4sEi1GCyhj75-4" value="consulterListeAdministrateur" style="text;html=1;align=left;verticalAlign=middle;spacingLeft=4;spacingRight=4;overflow=hidden;rotatable=0;points=[[0,0.5],[1,0.5]];portConstraint=eastwest;whiteSpace=wrap;" vertex="1" parent="DapbEgse4sEi1GCyhj75-1">
          <mxGeometry y="105" width="240" height="20" as="geometry" />
        </mxCell>
        <mxCell id="DapbEgse4sEi1GCyhj75-5" value="gererAdministrateur" style="text;html=1;align=left;verticalAlign=middle;spacingLeft=4;spacingRight=4;overflow=hidden;rotatable=0;points=[[0,0.5],[1,0.5]];portConstraint=eastwest;whiteSpace=wrap;" vertex="1" parent="DapbEgse4sEi1GCyhj75-1">
          <mxGeometry y="125" width="240" height="20" as="geometry" />
        </mxCell>
        <mxCell id="DapbEgse4sEi1GCyhj75-6" value="" style="endArrow=none;startArrow=none;endFill=0;startFill=0;endSize=8;html=1;verticalAlign=bottom;labelBackgroundColor=none;strokeWidth=3;rounded=0;" edge="1" parent="1" source="DapbEgse4sEi1GCyhj75-20" target="DapbEgse4sEi1GCyhj75-1">
          <mxGeometry width="160" relative="1" as="geometry">
            <mxPoint x="-20" y="270" as="sourcePoint" />
            <mxPoint x="460" y="330" as="targetPoint" />
          </mxGeometry>
        </mxCell>
        <mxCell id="DapbEgse4sEi1GCyhj75-7" value="&amp;lt;&amp;lt;contrôle&amp;gt;&amp;gt;&lt;br&gt;&lt;b&gt;CtrlGestionAdmin&lt;/b&gt;" style="swimlane;fontStyle=0;align=center;verticalAlign=top;childLayout=stackLayout;horizontal=1;startSize=55;horizontalStack=0;resizeParent=1;resizeParentMax=0;resizeLast=0;collapsible=0;marginBottom=0;html=1;whiteSpace=wrap;" vertex="1" parent="1">
          <mxGeometry x="540" y="122.5" width="150" height="150" as="geometry" />
        </mxCell>
        <mxCell id="DapbEgse4sEi1GCyhj75-8" value="" style="line;strokeWidth=1;align=left;verticalAlign=middle;spacingTop=-1;spacingLeft=3;spacingRight=3;rotatable=0;labelPosition=right;points=[];portConstraint=eastwest;" vertex="1" parent="DapbEgse4sEi1GCyhj75-7">
          <mxGeometry y="55" width="150" height="8" as="geometry" />
        </mxCell>
        <mxCell id="DapbEgse4sEi1GCyhj75-9" value="getAllAdmin()" style="text;html=1;align=left;verticalAlign=middle;spacingLeft=4;spacingRight=4;overflow=hidden;rotatable=0;points=[[0,0.5],[1,0.5]];portConstraint=eastwest;whiteSpace=wrap;" vertex="1" parent="DapbEgse4sEi1GCyhj75-7">
          <mxGeometry y="63" width="150" height="20" as="geometry" />
        </mxCell>
        <mxCell id="DapbEgse4sEi1GCyhj75-10" value="AjouterAdmin()" style="text;html=1;align=left;verticalAlign=middle;spacingLeft=4;spacingRight=4;overflow=hidden;rotatable=0;points=[[0,0.5],[1,0.5]];portConstraint=eastwest;whiteSpace=wrap;" vertex="1" parent="DapbEgse4sEi1GCyhj75-7">
          <mxGeometry y="83" width="150" height="20" as="geometry" />
        </mxCell>
        <mxCell id="DapbEgse4sEi1GCyhj75-11" value="SupprimerAdmin()" style="text;html=1;align=left;verticalAlign=middle;spacingLeft=4;spacingRight=4;overflow=hidden;rotatable=0;points=[[0,0.5],[1,0.5]];portConstraint=eastwest;whiteSpace=wrap;" vertex="1" parent="DapbEgse4sEi1GCyhj75-7">
          <mxGeometry y="103" width="150" height="20" as="geometry" />
        </mxCell>
        <mxCell id="DapbEgse4sEi1GCyhj75-12" value="ModifierAdmin()" style="text;html=1;align=left;verticalAlign=middle;spacingLeft=4;spacingRight=4;overflow=hidden;rotatable=0;points=[[0,0.5],[1,0.5]];portConstraint=eastwest;whiteSpace=wrap;" vertex="1" parent="DapbEgse4sEi1GCyhj75-7">
          <mxGeometry y="123" width="150" height="27" as="geometry" />
        </mxCell>
        <mxCell id="DapbEgse4sEi1GCyhj75-13" value="" style="endArrow=none;startArrow=none;endFill=0;startFill=0;endSize=8;html=1;verticalAlign=bottom;labelBackgroundColor=none;strokeWidth=3;rounded=0;" edge="1" parent="1" source="DapbEgse4sEi1GCyhj75-1" target="DapbEgse4sEi1GCyhj75-7">
          <mxGeometry width="160" relative="1" as="geometry">
            <mxPoint x="300" y="330" as="sourcePoint" />
            <mxPoint x="460" y="330" as="targetPoint" />
            <Array as="points">
              <mxPoint x="460" y="220" />
            </Array>
          </mxGeometry>
        </mxCell>
        <mxCell id="DapbEgse4sEi1GCyhj75-14" value="&amp;lt;&amp;lt;entité&amp;gt;&amp;gt;&lt;br&gt;&lt;b&gt;Admin&lt;/b&gt;" style="swimlane;fontStyle=0;align=center;verticalAlign=top;childLayout=stackLayout;horizontal=1;startSize=55;horizontalStack=0;resizeParent=1;resizeParentMax=0;resizeLast=0;collapsible=0;marginBottom=0;html=1;whiteSpace=wrap;" vertex="1" parent="1">
          <mxGeometry x="870" y="103.5" width="140" height="143" as="geometry" />
        </mxCell>
        <mxCell id="DapbEgse4sEi1GCyhj75-15" value="attributes" style="text;html=1;align=center;verticalAlign=middle;spacingLeft=4;spacingRight=4;overflow=hidden;rotatable=0;points=[[0,0.5],[1,0.5]];portConstraint=eastwest;whiteSpace=wrap;" vertex="1" parent="DapbEgse4sEi1GCyhj75-14">
          <mxGeometry y="55" width="140" height="20" as="geometry" />
        </mxCell>
        <mxCell id="DapbEgse4sEi1GCyhj75-16" value="id:int" style="text;html=1;align=left;verticalAlign=middle;spacingLeft=4;spacingRight=4;overflow=hidden;rotatable=0;points=[[0,0.5],[1,0.5]];portConstraint=eastwest;whiteSpace=wrap;" vertex="1" parent="DapbEgse4sEi1GCyhj75-14">
          <mxGeometry y="75" width="140" height="20" as="geometry" />
        </mxCell>
        <mxCell id="DapbEgse4sEi1GCyhj75-17" value="..." style="text;html=1;align=left;verticalAlign=middle;spacingLeft=4;spacingRight=4;overflow=hidden;rotatable=0;points=[[0,0.5],[1,0.5]];portConstraint=eastwest;whiteSpace=wrap;" vertex="1" parent="DapbEgse4sEi1GCyhj75-14">
          <mxGeometry y="95" width="140" height="20" as="geometry" />
        </mxCell>
        <mxCell id="DapbEgse4sEi1GCyhj75-26" value="permission:texte" style="text;html=1;align=left;verticalAlign=middle;spacingLeft=4;spacingRight=4;overflow=hidden;rotatable=0;points=[[0,0.5],[1,0.5]];portConstraint=eastwest;whiteSpace=wrap;" vertex="1" parent="DapbEgse4sEi1GCyhj75-14">
          <mxGeometry y="115" width="140" height="20" as="geometry" />
        </mxCell>
        <mxCell id="DapbEgse4sEi1GCyhj75-18" value="" style="line;strokeWidth=1;align=left;verticalAlign=middle;spacingTop=-1;spacingLeft=3;spacingRight=3;rotatable=0;labelPosition=right;points=[];portConstraint=eastwest;" vertex="1" parent="DapbEgse4sEi1GCyhj75-14">
          <mxGeometry y="135" width="140" height="8" as="geometry" />
        </mxCell>
        <mxCell id="DapbEgse4sEi1GCyhj75-19" value="" style="endArrow=none;startArrow=none;endFill=0;startFill=0;endSize=8;html=1;verticalAlign=bottom;labelBackgroundColor=none;strokeWidth=3;rounded=0;" edge="1" parent="1" source="DapbEgse4sEi1GCyhj75-7" target="DapbEgse4sEi1GCyhj75-14">
          <mxGeometry width="160" relative="1" as="geometry">
            <mxPoint x="690" y="430" as="sourcePoint" />
            <mxPoint x="850" y="430" as="targetPoint" />
            <Array as="points" />
          </mxGeometry>
        </mxCell>
        <mxCell id="DapbEgse4sEi1GCyhj75-20" value="ADMINISTRATEUR" style="shape=umlActor;verticalLabelPosition=bottom;verticalAlign=top;html=1;" vertex="1" parent="1">
          <mxGeometry x="-30" y="212.5" width="30" height="60" as="geometry" />
        </mxCell>
      </root>
    </mxGraphModel>
  </diagram>
  <diagram id="Be0hBsqjdESLixIX6RkG" name="DCP-GESTION-EVENEMENT">
    <mxGraphModel dx="2336" dy="832" grid="1" gridSize="10" guides="1" tooltips="1" connect="1" arrows="1" fold="1" page="1" pageScale="1" pageWidth="827" pageHeight="1169" math="0" shadow="0">
      <root>
        <mxCell id="0" />
        <mxCell id="1" parent="0" />
        <mxCell id="WbUv78gvdUTcjIiubH_X-1" value="&amp;lt;&amp;lt;dialogue&amp;gt;&amp;gt;&lt;br&gt;&lt;b&gt;PageGestionEvenenment&lt;/b&gt;" style="swimlane;fontStyle=0;align=center;verticalAlign=top;childLayout=stackLayout;horizontal=1;startSize=55;horizontalStack=0;resizeParent=1;resizeParentMax=0;resizeLast=0;collapsible=0;marginBottom=0;html=1;whiteSpace=wrap;" vertex="1" parent="1">
          <mxGeometry x="180" y="160" width="240" height="125" as="geometry" />
        </mxCell>
        <mxCell id="WbUv78gvdUTcjIiubH_X-2" value="ListEvenement" style="text;html=1;align=left;verticalAlign=middle;spacingLeft=4;spacingRight=4;overflow=hidden;rotatable=0;points=[[0,0.5],[1,0.5]];portConstraint=eastwest;whiteSpace=wrap;" vertex="1" parent="WbUv78gvdUTcjIiubH_X-1">
          <mxGeometry y="55" width="240" height="20" as="geometry" />
        </mxCell>
        <mxCell id="WbUv78gvdUTcjIiubH_X-3" value="" style="line;strokeWidth=1;align=left;verticalAlign=middle;spacingTop=-1;spacingLeft=3;spacingRight=3;rotatable=0;labelPosition=right;points=[];portConstraint=eastwest;" vertex="1" parent="WbUv78gvdUTcjIiubH_X-1">
          <mxGeometry y="75" width="240" height="30" as="geometry" />
        </mxCell>
        <mxCell id="WbUv78gvdUTcjIiubH_X-5" value="gererEvenement" style="text;html=1;align=left;verticalAlign=middle;spacingLeft=4;spacingRight=4;overflow=hidden;rotatable=0;points=[[0,0.5],[1,0.5]];portConstraint=eastwest;whiteSpace=wrap;" vertex="1" parent="WbUv78gvdUTcjIiubH_X-1">
          <mxGeometry y="105" width="240" height="20" as="geometry" />
        </mxCell>
        <mxCell id="WbUv78gvdUTcjIiubH_X-6" value="" style="endArrow=none;startArrow=none;endFill=0;startFill=0;endSize=8;html=1;verticalAlign=bottom;labelBackgroundColor=none;strokeWidth=3;rounded=0;" edge="1" parent="1" source="WbUv78gvdUTcjIiubH_X-21" target="WbUv78gvdUTcjIiubH_X-1">
          <mxGeometry width="160" relative="1" as="geometry">
            <mxPoint x="-20" y="270" as="sourcePoint" />
            <mxPoint x="460" y="330" as="targetPoint" />
          </mxGeometry>
        </mxCell>
        <mxCell id="WbUv78gvdUTcjIiubH_X-7" value="&amp;lt;&amp;lt;contrôle&amp;gt;&amp;gt;&lt;br&gt;&lt;b&gt;CtrlGestionEvenement&lt;/b&gt;" style="swimlane;fontStyle=0;align=center;verticalAlign=top;childLayout=stackLayout;horizontal=1;startSize=55;horizontalStack=0;resizeParent=1;resizeParentMax=0;resizeLast=0;collapsible=0;marginBottom=0;html=1;whiteSpace=wrap;" vertex="1" parent="1">
          <mxGeometry x="540" y="160" width="150" height="137" as="geometry" />
        </mxCell>
        <mxCell id="WbUv78gvdUTcjIiubH_X-8" value="" style="line;strokeWidth=1;align=left;verticalAlign=middle;spacingTop=-1;spacingLeft=3;spacingRight=3;rotatable=0;labelPosition=right;points=[];portConstraint=eastwest;" vertex="1" parent="WbUv78gvdUTcjIiubH_X-7">
          <mxGeometry y="55" width="150" height="8" as="geometry" />
        </mxCell>
        <mxCell id="WbUv78gvdUTcjIiubH_X-9" value="getAllFinal()" style="text;html=1;align=left;verticalAlign=middle;spacingLeft=4;spacingRight=4;overflow=hidden;rotatable=0;points=[[0,0.5],[1,0.5]];portConstraint=eastwest;whiteSpace=wrap;" vertex="1" parent="WbUv78gvdUTcjIiubH_X-7">
          <mxGeometry y="63" width="150" height="20" as="geometry" />
        </mxCell>
        <mxCell id="WbUv78gvdUTcjIiubH_X-12" value="ModifierEvenement()" style="text;html=1;align=left;verticalAlign=middle;spacingLeft=4;spacingRight=4;overflow=hidden;rotatable=0;points=[[0,0.5],[1,0.5]];portConstraint=eastwest;whiteSpace=wrap;" vertex="1" parent="WbUv78gvdUTcjIiubH_X-7">
          <mxGeometry y="83" width="150" height="27" as="geometry" />
        </mxCell>
        <mxCell id="WbUv78gvdUTcjIiubH_X-22" value="ModifierPeriodeEvenement()" style="text;html=1;align=left;verticalAlign=middle;spacingLeft=4;spacingRight=4;overflow=hidden;rotatable=0;points=[[0,0.5],[1,0.5]];portConstraint=eastwest;whiteSpace=wrap;" vertex="1" parent="WbUv78gvdUTcjIiubH_X-7">
          <mxGeometry y="110" width="150" height="27" as="geometry" />
        </mxCell>
        <mxCell id="WbUv78gvdUTcjIiubH_X-13" value="" style="endArrow=none;startArrow=none;endFill=0;startFill=0;endSize=8;html=1;verticalAlign=bottom;labelBackgroundColor=none;strokeWidth=3;rounded=0;" edge="1" parent="1" source="WbUv78gvdUTcjIiubH_X-1" target="WbUv78gvdUTcjIiubH_X-7">
          <mxGeometry width="160" relative="1" as="geometry">
            <mxPoint x="300" y="330" as="sourcePoint" />
            <mxPoint x="460" y="330" as="targetPoint" />
            <Array as="points">
              <mxPoint x="460" y="220" />
            </Array>
          </mxGeometry>
        </mxCell>
        <mxCell id="WbUv78gvdUTcjIiubH_X-14" value="&amp;lt;&amp;lt;entité&amp;gt;&amp;gt;&lt;br&gt;&lt;b&gt;Evenenment&lt;/b&gt;" style="swimlane;fontStyle=0;align=center;verticalAlign=top;childLayout=stackLayout;horizontal=1;startSize=55;horizontalStack=0;resizeParent=1;resizeParentMax=0;resizeLast=0;collapsible=0;marginBottom=0;html=1;whiteSpace=wrap;" vertex="1" parent="1">
          <mxGeometry x="870" y="103.5" width="140" height="123" as="geometry" />
        </mxCell>
        <mxCell id="WbUv78gvdUTcjIiubH_X-15" value="attributes" style="text;html=1;align=center;verticalAlign=middle;spacingLeft=4;spacingRight=4;overflow=hidden;rotatable=0;points=[[0,0.5],[1,0.5]];portConstraint=eastwest;whiteSpace=wrap;" vertex="1" parent="WbUv78gvdUTcjIiubH_X-14">
          <mxGeometry y="55" width="140" height="20" as="geometry" />
        </mxCell>
        <mxCell id="WbUv78gvdUTcjIiubH_X-16" value="id:int" style="text;html=1;align=left;verticalAlign=middle;spacingLeft=4;spacingRight=4;overflow=hidden;rotatable=0;points=[[0,0.5],[1,0.5]];portConstraint=eastwest;whiteSpace=wrap;" vertex="1" parent="WbUv78gvdUTcjIiubH_X-14">
          <mxGeometry y="75" width="140" height="20" as="geometry" />
        </mxCell>
        <mxCell id="WbUv78gvdUTcjIiubH_X-17" value="..." style="text;html=1;align=left;verticalAlign=middle;spacingLeft=4;spacingRight=4;overflow=hidden;rotatable=0;points=[[0,0.5],[1,0.5]];portConstraint=eastwest;whiteSpace=wrap;" vertex="1" parent="WbUv78gvdUTcjIiubH_X-14">
          <mxGeometry y="95" width="140" height="20" as="geometry" />
        </mxCell>
        <mxCell id="WbUv78gvdUTcjIiubH_X-19" value="" style="line;strokeWidth=1;align=left;verticalAlign=middle;spacingTop=-1;spacingLeft=3;spacingRight=3;rotatable=0;labelPosition=right;points=[];portConstraint=eastwest;" vertex="1" parent="WbUv78gvdUTcjIiubH_X-14">
          <mxGeometry y="115" width="140" height="8" as="geometry" />
        </mxCell>
        <mxCell id="WbUv78gvdUTcjIiubH_X-20" value="" style="endArrow=none;startArrow=none;endFill=0;startFill=0;endSize=8;html=1;verticalAlign=bottom;labelBackgroundColor=none;strokeWidth=3;rounded=0;" edge="1" parent="1" source="WbUv78gvdUTcjIiubH_X-7" target="WbUv78gvdUTcjIiubH_X-14">
          <mxGeometry width="160" relative="1" as="geometry">
            <mxPoint x="690" y="430" as="sourcePoint" />
            <mxPoint x="850" y="430" as="targetPoint" />
            <Array as="points" />
          </mxGeometry>
        </mxCell>
        <mxCell id="WbUv78gvdUTcjIiubH_X-21" value="ADMINISTRATEUR" style="shape=umlActor;verticalLabelPosition=bottom;verticalAlign=top;html=1;" vertex="1" parent="1">
          <mxGeometry x="-30" y="212.5" width="30" height="60" as="geometry" />
        </mxCell>
      </root>
    </mxGraphModel>
  </diagram>
  <diagram id="iUDD91Ad9TnuLEViU5fl" name="DCP-PAGE-ACCUEIL">
    <mxGraphModel dx="2131" dy="718" grid="1" gridSize="10" guides="1" tooltips="1" connect="1" arrows="1" fold="1" page="1" pageScale="1" pageWidth="827" pageHeight="1169" math="0" shadow="0">
      <root>
        <mxCell id="0" />
        <mxCell id="1" parent="0" />
        <mxCell id="KXV8oSOPsqtzDK7Eafjv-1" value="&amp;lt;&amp;lt;dialogue&amp;gt;&amp;gt;&lt;br&gt;&lt;b&gt;PageDashboard&lt;/b&gt;" style="swimlane;fontStyle=0;align=center;verticalAlign=top;childLayout=stackLayout;horizontal=1;startSize=55;horizontalStack=0;resizeParent=1;resizeParentMax=0;resizeLast=0;collapsible=0;marginBottom=0;html=1;whiteSpace=wrap;" vertex="1" parent="1">
          <mxGeometry x="180" y="160" width="240" height="125" as="geometry" />
        </mxCell>
        <mxCell id="KXV8oSOPsqtzDK7Eafjv-19" value="ListeDesStatistique" style="text;html=1;align=left;verticalAlign=middle;spacingLeft=4;spacingRight=4;overflow=hidden;rotatable=0;points=[[0,0.5],[1,0.5]];portConstraint=eastwest;whiteSpace=wrap;" vertex="1" parent="KXV8oSOPsqtzDK7Eafjv-1">
          <mxGeometry y="55" width="240" height="20" as="geometry" />
        </mxCell>
        <mxCell id="KXV8oSOPsqtzDK7Eafjv-3" value="" style="line;strokeWidth=1;align=left;verticalAlign=middle;spacingTop=-1;spacingLeft=3;spacingRight=3;rotatable=0;labelPosition=right;points=[];portConstraint=eastwest;" vertex="1" parent="KXV8oSOPsqtzDK7Eafjv-1">
          <mxGeometry y="75" width="240" height="30" as="geometry" />
        </mxCell>
        <mxCell id="KXV8oSOPsqtzDK7Eafjv-4" value="FiltrerParCandidate" style="text;html=1;align=left;verticalAlign=middle;spacingLeft=4;spacingRight=4;overflow=hidden;rotatable=0;points=[[0,0.5],[1,0.5]];portConstraint=eastwest;whiteSpace=wrap;" vertex="1" parent="KXV8oSOPsqtzDK7Eafjv-1">
          <mxGeometry y="105" width="240" height="20" as="geometry" />
        </mxCell>
        <mxCell id="KXV8oSOPsqtzDK7Eafjv-5" value="" style="endArrow=none;startArrow=none;endFill=0;startFill=0;endSize=8;html=1;verticalAlign=bottom;labelBackgroundColor=none;strokeWidth=3;rounded=0;" edge="1" parent="1" source="KXV8oSOPsqtzDK7Eafjv-18" target="KXV8oSOPsqtzDK7Eafjv-1">
          <mxGeometry width="160" relative="1" as="geometry">
            <mxPoint x="-20" y="270" as="sourcePoint" />
            <mxPoint x="460" y="330" as="targetPoint" />
          </mxGeometry>
        </mxCell>
        <mxCell id="KXV8oSOPsqtzDK7Eafjv-6" value="&amp;lt;&amp;lt;contrôle&amp;gt;&amp;gt;&lt;br&gt;&lt;b&gt;CtrlStatistique&lt;/b&gt;" style="swimlane;fontStyle=0;align=center;verticalAlign=top;childLayout=stackLayout;horizontal=1;startSize=55;horizontalStack=0;resizeParent=1;resizeParentMax=0;resizeLast=0;collapsible=0;marginBottom=0;html=1;whiteSpace=wrap;" vertex="1" parent="1">
          <mxGeometry x="540" y="160" width="150" height="83" as="geometry" />
        </mxCell>
        <mxCell id="KXV8oSOPsqtzDK7Eafjv-7" value="" style="line;strokeWidth=1;align=left;verticalAlign=middle;spacingTop=-1;spacingLeft=3;spacingRight=3;rotatable=0;labelPosition=right;points=[];portConstraint=eastwest;" vertex="1" parent="KXV8oSOPsqtzDK7Eafjv-6">
          <mxGeometry y="55" width="150" height="8" as="geometry" />
        </mxCell>
        <mxCell id="KXV8oSOPsqtzDK7Eafjv-8" value="getAllStat()" style="text;html=1;align=left;verticalAlign=middle;spacingLeft=4;spacingRight=4;overflow=hidden;rotatable=0;points=[[0,0.5],[1,0.5]];portConstraint=eastwest;whiteSpace=wrap;" vertex="1" parent="KXV8oSOPsqtzDK7Eafjv-6">
          <mxGeometry y="63" width="150" height="20" as="geometry" />
        </mxCell>
        <mxCell id="KXV8oSOPsqtzDK7Eafjv-11" value="" style="endArrow=none;startArrow=none;endFill=0;startFill=0;endSize=8;html=1;verticalAlign=bottom;labelBackgroundColor=none;strokeWidth=3;rounded=0;" edge="1" parent="1" source="KXV8oSOPsqtzDK7Eafjv-1" target="KXV8oSOPsqtzDK7Eafjv-6">
          <mxGeometry width="160" relative="1" as="geometry">
            <mxPoint x="300" y="330" as="sourcePoint" />
            <mxPoint x="460" y="330" as="targetPoint" />
            <Array as="points">
              <mxPoint x="460" y="220" />
            </Array>
          </mxGeometry>
        </mxCell>
        <mxCell id="KXV8oSOPsqtzDK7Eafjv-12" value="&amp;lt;&amp;lt;entité&amp;gt;&amp;gt;&lt;br&gt;&lt;b&gt;Statistique&lt;/b&gt;" style="swimlane;fontStyle=0;align=center;verticalAlign=top;childLayout=stackLayout;horizontal=1;startSize=55;horizontalStack=0;resizeParent=1;resizeParentMax=0;resizeLast=0;collapsible=0;marginBottom=0;html=1;whiteSpace=wrap;" vertex="1" parent="1">
          <mxGeometry x="870" y="103.5" width="140" height="123" as="geometry" />
        </mxCell>
        <mxCell id="KXV8oSOPsqtzDK7Eafjv-13" value="attributes" style="text;html=1;align=center;verticalAlign=middle;spacingLeft=4;spacingRight=4;overflow=hidden;rotatable=0;points=[[0,0.5],[1,0.5]];portConstraint=eastwest;whiteSpace=wrap;" vertex="1" parent="KXV8oSOPsqtzDK7Eafjv-12">
          <mxGeometry y="55" width="140" height="20" as="geometry" />
        </mxCell>
        <mxCell id="KXV8oSOPsqtzDK7Eafjv-14" value="id:int" style="text;html=1;align=left;verticalAlign=middle;spacingLeft=4;spacingRight=4;overflow=hidden;rotatable=0;points=[[0,0.5],[1,0.5]];portConstraint=eastwest;whiteSpace=wrap;" vertex="1" parent="KXV8oSOPsqtzDK7Eafjv-12">
          <mxGeometry y="75" width="140" height="20" as="geometry" />
        </mxCell>
        <mxCell id="KXV8oSOPsqtzDK7Eafjv-15" value="..." style="text;html=1;align=left;verticalAlign=middle;spacingLeft=4;spacingRight=4;overflow=hidden;rotatable=0;points=[[0,0.5],[1,0.5]];portConstraint=eastwest;whiteSpace=wrap;" vertex="1" parent="KXV8oSOPsqtzDK7Eafjv-12">
          <mxGeometry y="95" width="140" height="20" as="geometry" />
        </mxCell>
        <mxCell id="KXV8oSOPsqtzDK7Eafjv-16" value="" style="line;strokeWidth=1;align=left;verticalAlign=middle;spacingTop=-1;spacingLeft=3;spacingRight=3;rotatable=0;labelPosition=right;points=[];portConstraint=eastwest;" vertex="1" parent="KXV8oSOPsqtzDK7Eafjv-12">
          <mxGeometry y="115" width="140" height="8" as="geometry" />
        </mxCell>
        <mxCell id="KXV8oSOPsqtzDK7Eafjv-17" value="" style="endArrow=none;startArrow=none;endFill=0;startFill=0;endSize=8;html=1;verticalAlign=bottom;labelBackgroundColor=none;strokeWidth=3;rounded=0;" edge="1" parent="1" source="KXV8oSOPsqtzDK7Eafjv-6" target="KXV8oSOPsqtzDK7Eafjv-12">
          <mxGeometry width="160" relative="1" as="geometry">
            <mxPoint x="690" y="430" as="sourcePoint" />
            <mxPoint x="850" y="430" as="targetPoint" />
            <Array as="points" />
          </mxGeometry>
        </mxCell>
        <mxCell id="KXV8oSOPsqtzDK7Eafjv-18" value="ADMINISTRATEUR" style="shape=umlActor;verticalLabelPosition=bottom;verticalAlign=top;html=1;" vertex="1" parent="1">
          <mxGeometry x="-30" y="212.5" width="30" height="60" as="geometry" />
        </mxCell>
      </root>
    </mxGraphModel>
  </diagram>
  <diagram id="5U50SYsUTpz1niUXcg6N" name="DC-TABOURET-ROYAL">
    <mxGraphModel dx="2131" dy="718" grid="1" gridSize="10" guides="1" tooltips="1" connect="1" arrows="1" fold="1" page="1" pageScale="1" pageWidth="827" pageHeight="1169" math="0" shadow="0">
      <root>
        <mxCell id="0" />
        <mxCell id="1" parent="0" />
        <mxCell id="G8fAhoC2T2g0D4yBGHlA-1" value="&lt;b&gt;Candidate&lt;/b&gt;" style="swimlane;fontStyle=0;align=center;verticalAlign=top;childLayout=stackLayout;horizontal=1;startSize=55;horizontalStack=0;resizeParent=1;resizeParentMax=0;resizeLast=0;collapsible=0;marginBottom=0;html=1;whiteSpace=wrap;" vertex="1" parent="1">
          <mxGeometry x="120" y="80" width="170" height="263" as="geometry" />
        </mxCell>
        <mxCell id="G8fAhoC2T2g0D4yBGHlA-2" value="attributes" style="text;html=1;strokeColor=none;fillColor=none;align=center;verticalAlign=middle;spacingLeft=4;spacingRight=4;overflow=hidden;rotatable=0;points=[[0,0.5],[1,0.5]];portConstraint=eastwest;whiteSpace=wrap;" vertex="1" parent="G8fAhoC2T2g0D4yBGHlA-1">
          <mxGeometry y="55" width="170" height="20" as="geometry" />
        </mxCell>
        <mxCell id="G8fAhoC2T2g0D4yBGHlA-3" value="id: int" style="text;html=1;strokeColor=none;fillColor=none;align=left;verticalAlign=middle;spacingLeft=4;spacingRight=4;overflow=hidden;rotatable=0;points=[[0,0.5],[1,0.5]];portConstraint=eastwest;whiteSpace=wrap;" vertex="1" parent="G8fAhoC2T2g0D4yBGHlA-1">
          <mxGeometry y="75" width="170" height="20" as="geometry" />
        </mxCell>
        <mxCell id="G8fAhoC2T2g0D4yBGHlA-9" value="nom: string" style="text;html=1;strokeColor=none;fillColor=none;align=left;verticalAlign=middle;spacingLeft=4;spacingRight=4;overflow=hidden;rotatable=0;points=[[0,0.5],[1,0.5]];portConstraint=eastwest;whiteSpace=wrap;" vertex="1" parent="G8fAhoC2T2g0D4yBGHlA-1">
          <mxGeometry y="95" width="170" height="20" as="geometry" />
        </mxCell>
        <mxCell id="G8fAhoC2T2g0D4yBGHlA-13" value="numeroCandidate: string" style="text;html=1;strokeColor=none;fillColor=none;align=left;verticalAlign=middle;spacingLeft=4;spacingRight=4;overflow=hidden;rotatable=0;points=[[0,0.5],[1,0.5]];portConstraint=eastwest;whiteSpace=wrap;" vertex="1" parent="G8fAhoC2T2g0D4yBGHlA-1">
          <mxGeometry y="115" width="170" height="20" as="geometry" />
        </mxCell>
        <mxCell id="G8fAhoC2T2g0D4yBGHlA-11" value="prénom: string" style="text;html=1;strokeColor=none;fillColor=none;align=left;verticalAlign=middle;spacingLeft=4;spacingRight=4;overflow=hidden;rotatable=0;points=[[0,0.5],[1,0.5]];portConstraint=eastwest;whiteSpace=wrap;" vertex="1" parent="G8fAhoC2T2g0D4yBGHlA-1">
          <mxGeometry y="135" width="170" height="20" as="geometry" />
        </mxCell>
        <mxCell id="G8fAhoC2T2g0D4yBGHlA-25" value="quartier: string" style="text;html=1;strokeColor=none;fillColor=none;align=left;verticalAlign=middle;spacingLeft=4;spacingRight=4;overflow=hidden;rotatable=0;points=[[0,0.5],[1,0.5]];portConstraint=eastwest;whiteSpace=wrap;" vertex="1" parent="G8fAhoC2T2g0D4yBGHlA-1">
          <mxGeometry y="155" width="170" height="20" as="geometry" />
        </mxCell>
        <mxCell id="G8fAhoC2T2g0D4yBGHlA-26" value="region: string" style="text;html=1;strokeColor=none;fillColor=none;align=left;verticalAlign=middle;spacingLeft=4;spacingRight=4;overflow=hidden;rotatable=0;points=[[0,0.5],[1,0.5]];portConstraint=eastwest;whiteSpace=wrap;" vertex="1" parent="G8fAhoC2T2g0D4yBGHlA-1">
          <mxGeometry y="175" width="170" height="20" as="geometry" />
        </mxCell>
        <mxCell id="G8fAhoC2T2g0D4yBGHlA-12" value="dateNaissance: string" style="text;html=1;strokeColor=none;fillColor=none;align=left;verticalAlign=middle;spacingLeft=4;spacingRight=4;overflow=hidden;rotatable=0;points=[[0,0.5],[1,0.5]];portConstraint=eastwest;whiteSpace=wrap;" vertex="1" parent="G8fAhoC2T2g0D4yBGHlA-1">
          <mxGeometry y="195" width="170" height="20" as="geometry" />
        </mxCell>
        <mxCell id="uG7y3TIqu0LmUmaoY-dK-13" value="nombreVoix: int" style="text;html=1;strokeColor=none;fillColor=none;align=left;verticalAlign=middle;spacingLeft=4;spacingRight=4;overflow=hidden;rotatable=0;points=[[0,0.5],[1,0.5]];portConstraint=eastwest;whiteSpace=wrap;" vertex="1" parent="G8fAhoC2T2g0D4yBGHlA-1">
          <mxGeometry y="215" width="170" height="20" as="geometry" />
        </mxCell>
        <mxCell id="uG7y3TIqu0LmUmaoY-dK-14" value="pourcentage: double" style="text;html=1;strokeColor=none;fillColor=none;align=left;verticalAlign=middle;spacingLeft=4;spacingRight=4;overflow=hidden;rotatable=0;points=[[0,0.5],[1,0.5]];portConstraint=eastwest;whiteSpace=wrap;" vertex="1" parent="G8fAhoC2T2g0D4yBGHlA-1">
          <mxGeometry y="235" width="170" height="20" as="geometry" />
        </mxCell>
        <mxCell id="G8fAhoC2T2g0D4yBGHlA-6" value="" style="line;strokeWidth=1;fillColor=none;align=left;verticalAlign=middle;spacingTop=-1;spacingLeft=3;spacingRight=3;rotatable=0;labelPosition=right;points=[];portConstraint=eastwest;" vertex="1" parent="G8fAhoC2T2g0D4yBGHlA-1">
          <mxGeometry y="255" width="170" height="8" as="geometry" />
        </mxCell>
        <mxCell id="G8fAhoC2T2g0D4yBGHlA-15" value="&lt;b&gt;ImageCandidate&lt;/b&gt;" style="swimlane;fontStyle=0;align=center;verticalAlign=top;childLayout=stackLayout;horizontal=1;startSize=55;horizontalStack=0;resizeParent=1;resizeParentMax=0;resizeLast=0;collapsible=0;marginBottom=0;html=1;whiteSpace=wrap;" vertex="1" parent="1">
          <mxGeometry x="-240" y="130" width="170" height="123" as="geometry" />
        </mxCell>
        <mxCell id="G8fAhoC2T2g0D4yBGHlA-16" value="attributes" style="text;html=1;strokeColor=none;fillColor=none;align=center;verticalAlign=middle;spacingLeft=4;spacingRight=4;overflow=hidden;rotatable=0;points=[[0,0.5],[1,0.5]];portConstraint=eastwest;whiteSpace=wrap;" vertex="1" parent="G8fAhoC2T2g0D4yBGHlA-15">
          <mxGeometry y="55" width="170" height="20" as="geometry" />
        </mxCell>
        <mxCell id="G8fAhoC2T2g0D4yBGHlA-17" value="id: int" style="text;html=1;strokeColor=none;fillColor=none;align=left;verticalAlign=middle;spacingLeft=4;spacingRight=4;overflow=hidden;rotatable=0;points=[[0,0.5],[1,0.5]];portConstraint=eastwest;whiteSpace=wrap;" vertex="1" parent="G8fAhoC2T2g0D4yBGHlA-15">
          <mxGeometry y="75" width="170" height="20" as="geometry" />
        </mxCell>
        <mxCell id="G8fAhoC2T2g0D4yBGHlA-18" value="imageCandidate: string" style="text;html=1;strokeColor=none;fillColor=none;align=left;verticalAlign=middle;spacingLeft=4;spacingRight=4;overflow=hidden;rotatable=0;points=[[0,0.5],[1,0.5]];portConstraint=eastwest;whiteSpace=wrap;" vertex="1" parent="G8fAhoC2T2g0D4yBGHlA-15">
          <mxGeometry y="95" width="170" height="20" as="geometry" />
        </mxCell>
        <mxCell id="G8fAhoC2T2g0D4yBGHlA-22" value="" style="line;strokeWidth=1;fillColor=none;align=left;verticalAlign=middle;spacingTop=-1;spacingLeft=3;spacingRight=3;rotatable=0;labelPosition=right;points=[];portConstraint=eastwest;" vertex="1" parent="G8fAhoC2T2g0D4yBGHlA-15">
          <mxGeometry y="115" width="170" height="8" as="geometry" />
        </mxCell>
        <mxCell id="G8fAhoC2T2g0D4yBGHlA-28" value="" style="endArrow=none;startArrow=none;endFill=0;startFill=0;endSize=8;html=1;verticalAlign=bottom;labelBackgroundColor=none;strokeWidth=1;rounded=0;" edge="1" parent="1" source="G8fAhoC2T2g0D4yBGHlA-15" target="G8fAhoC2T2g0D4yBGHlA-1">
          <mxGeometry width="160" relative="1" as="geometry">
            <mxPoint x="330" y="310" as="sourcePoint" />
            <mxPoint x="490" y="310" as="targetPoint" />
          </mxGeometry>
        </mxCell>
        <mxCell id="uG7y3TIqu0LmUmaoY-dK-4" value="3..*" style="edgeLabel;html=1;align=center;verticalAlign=middle;resizable=0;points=[];" vertex="1" connectable="0" parent="G8fAhoC2T2g0D4yBGHlA-28">
          <mxGeometry x="-0.8737" relative="1" as="geometry">
            <mxPoint y="1" as="offset" />
          </mxGeometry>
        </mxCell>
        <mxCell id="uG7y3TIqu0LmUmaoY-dK-5" value="1" style="edgeLabel;html=1;align=center;verticalAlign=middle;resizable=0;points=[];" vertex="1" connectable="0" parent="G8fAhoC2T2g0D4yBGHlA-28">
          <mxGeometry x="0.8737" y="1" relative="1" as="geometry">
            <mxPoint y="1" as="offset" />
          </mxGeometry>
        </mxCell>
        <mxCell id="G8fAhoC2T2g0D4yBGHlA-29" value="&lt;b&gt;Transaction&lt;/b&gt;" style="swimlane;fontStyle=0;align=center;verticalAlign=top;childLayout=stackLayout;horizontal=1;startSize=55;horizontalStack=0;resizeParent=1;resizeParentMax=0;resizeLast=0;collapsible=0;marginBottom=0;html=1;whiteSpace=wrap;" vertex="1" parent="1">
          <mxGeometry x="120" y="500" width="170" height="203" as="geometry" />
        </mxCell>
        <mxCell id="G8fAhoC2T2g0D4yBGHlA-30" value="attributes" style="text;html=1;strokeColor=none;fillColor=none;align=center;verticalAlign=middle;spacingLeft=4;spacingRight=4;overflow=hidden;rotatable=0;points=[[0,0.5],[1,0.5]];portConstraint=eastwest;whiteSpace=wrap;" vertex="1" parent="G8fAhoC2T2g0D4yBGHlA-29">
          <mxGeometry y="55" width="170" height="20" as="geometry" />
        </mxCell>
        <mxCell id="G8fAhoC2T2g0D4yBGHlA-31" value="id: int" style="text;html=1;strokeColor=none;fillColor=none;align=left;verticalAlign=middle;spacingLeft=4;spacingRight=4;overflow=hidden;rotatable=0;points=[[0,0.5],[1,0.5]];portConstraint=eastwest;whiteSpace=wrap;" vertex="1" parent="G8fAhoC2T2g0D4yBGHlA-29">
          <mxGeometry y="75" width="170" height="20" as="geometry" />
        </mxCell>
        <mxCell id="G8fAhoC2T2g0D4yBGHlA-42" value="nomClient: string" style="text;html=1;strokeColor=none;fillColor=none;align=left;verticalAlign=middle;spacingLeft=4;spacingRight=4;overflow=hidden;rotatable=0;points=[[0,0.5],[1,0.5]];portConstraint=eastwest;whiteSpace=wrap;" vertex="1" parent="G8fAhoC2T2g0D4yBGHlA-29">
          <mxGeometry y="95" width="170" height="20" as="geometry" />
        </mxCell>
        <mxCell id="G8fAhoC2T2g0D4yBGHlA-32" value="numero: string" style="text;html=1;strokeColor=none;fillColor=none;align=left;verticalAlign=middle;spacingLeft=4;spacingRight=4;overflow=hidden;rotatable=0;points=[[0,0.5],[1,0.5]];portConstraint=eastwest;whiteSpace=wrap;" vertex="1" parent="G8fAhoC2T2g0D4yBGHlA-29">
          <mxGeometry y="115" width="170" height="20" as="geometry" />
        </mxCell>
        <mxCell id="G8fAhoC2T2g0D4yBGHlA-34" value="montant: int" style="text;html=1;strokeColor=none;fillColor=none;align=left;verticalAlign=middle;spacingLeft=4;spacingRight=4;overflow=hidden;rotatable=0;points=[[0,0.5],[1,0.5]];portConstraint=eastwest;whiteSpace=wrap;" vertex="1" parent="G8fAhoC2T2g0D4yBGHlA-29">
          <mxGeometry y="135" width="170" height="20" as="geometry" />
        </mxCell>
        <mxCell id="uG7y3TIqu0LmUmaoY-dK-10" value="date: string" style="text;html=1;strokeColor=none;fillColor=none;align=left;verticalAlign=middle;spacingLeft=4;spacingRight=4;overflow=hidden;rotatable=0;points=[[0,0.5],[1,0.5]];portConstraint=eastwest;whiteSpace=wrap;" vertex="1" parent="G8fAhoC2T2g0D4yBGHlA-29">
          <mxGeometry y="155" width="170" height="20" as="geometry" />
        </mxCell>
        <mxCell id="G8fAhoC2T2g0D4yBGHlA-41" value="modePaiement: string" style="text;html=1;strokeColor=none;fillColor=none;align=left;verticalAlign=middle;spacingLeft=4;spacingRight=4;overflow=hidden;rotatable=0;points=[[0,0.5],[1,0.5]];portConstraint=eastwest;whiteSpace=wrap;" vertex="1" parent="G8fAhoC2T2g0D4yBGHlA-29">
          <mxGeometry y="175" width="170" height="20" as="geometry" />
        </mxCell>
        <mxCell id="G8fAhoC2T2g0D4yBGHlA-33" value="" style="line;strokeWidth=1;fillColor=none;align=left;verticalAlign=middle;spacingTop=-1;spacingLeft=3;spacingRight=3;rotatable=0;labelPosition=right;points=[];portConstraint=eastwest;" vertex="1" parent="G8fAhoC2T2g0D4yBGHlA-29">
          <mxGeometry y="195" width="170" height="8" as="geometry" />
        </mxCell>
        <mxCell id="G8fAhoC2T2g0D4yBGHlA-43" value="" style="endArrow=none;startArrow=none;endFill=0;startFill=0;endSize=8;html=1;verticalAlign=bottom;labelBackgroundColor=none;strokeWidth=1;rounded=0;" edge="1" parent="1" source="G8fAhoC2T2g0D4yBGHlA-29" target="G8fAhoC2T2g0D4yBGHlA-1">
          <mxGeometry width="160" relative="1" as="geometry">
            <mxPoint x="140" y="470" as="sourcePoint" />
            <mxPoint x="310" y="450" as="targetPoint" />
          </mxGeometry>
        </mxCell>
        <mxCell id="uG7y3TIqu0LmUmaoY-dK-6" value="1" style="edgeLabel;html=1;align=center;verticalAlign=middle;resizable=0;points=[];" vertex="1" connectable="0" parent="G8fAhoC2T2g0D4yBGHlA-43">
          <mxGeometry x="0.8782" y="2" relative="1" as="geometry">
            <mxPoint as="offset" />
          </mxGeometry>
        </mxCell>
        <mxCell id="uG7y3TIqu0LmUmaoY-dK-7" value="0..*" style="edgeLabel;html=1;align=center;verticalAlign=middle;resizable=0;points=[];" vertex="1" connectable="0" parent="G8fAhoC2T2g0D4yBGHlA-43">
          <mxGeometry x="-0.8706" relative="1" as="geometry">
            <mxPoint as="offset" />
          </mxGeometry>
        </mxCell>
        <mxCell id="my3WOdS6CelaEkj1p_PE-1" value="&lt;b&gt;Evenement&lt;/b&gt;" style="swimlane;fontStyle=0;align=center;verticalAlign=top;childLayout=stackLayout;horizontal=1;startSize=55;horizontalStack=0;resizeParent=1;resizeParentMax=0;resizeLast=0;collapsible=0;marginBottom=0;html=1;whiteSpace=wrap;" vertex="1" parent="1">
          <mxGeometry x="520" y="190" width="170" height="183" as="geometry" />
        </mxCell>
        <mxCell id="my3WOdS6CelaEkj1p_PE-2" value="attributes" style="text;html=1;strokeColor=none;fillColor=none;align=center;verticalAlign=middle;spacingLeft=4;spacingRight=4;overflow=hidden;rotatable=0;points=[[0,0.5],[1,0.5]];portConstraint=eastwest;whiteSpace=wrap;" vertex="1" parent="my3WOdS6CelaEkj1p_PE-1">
          <mxGeometry y="55" width="170" height="20" as="geometry" />
        </mxCell>
        <mxCell id="my3WOdS6CelaEkj1p_PE-3" value="id: int" style="text;html=1;strokeColor=none;fillColor=none;align=left;verticalAlign=middle;spacingLeft=4;spacingRight=4;overflow=hidden;rotatable=0;points=[[0,0.5],[1,0.5]];portConstraint=eastwest;whiteSpace=wrap;" vertex="1" parent="my3WOdS6CelaEkj1p_PE-1">
          <mxGeometry y="75" width="170" height="20" as="geometry" />
        </mxCell>
        <mxCell id="my3WOdS6CelaEkj1p_PE-4" value="nom: string" style="text;html=1;strokeColor=none;fillColor=none;align=left;verticalAlign=middle;spacingLeft=4;spacingRight=4;overflow=hidden;rotatable=0;points=[[0,0.5],[1,0.5]];portConstraint=eastwest;whiteSpace=wrap;" vertex="1" parent="my3WOdS6CelaEkj1p_PE-1">
          <mxGeometry y="95" width="170" height="20" as="geometry" />
        </mxCell>
        <mxCell id="my3WOdS6CelaEkj1p_PE-11" value="description: string" style="text;html=1;strokeColor=none;fillColor=none;align=left;verticalAlign=middle;spacingLeft=4;spacingRight=4;overflow=hidden;rotatable=0;points=[[0,0.5],[1,0.5]];portConstraint=eastwest;whiteSpace=wrap;" vertex="1" parent="my3WOdS6CelaEkj1p_PE-1">
          <mxGeometry y="115" width="170" height="20" as="geometry" />
        </mxCell>
        <mxCell id="my3WOdS6CelaEkj1p_PE-5" value="dateDebut: string" style="text;html=1;strokeColor=none;fillColor=none;align=left;verticalAlign=middle;spacingLeft=4;spacingRight=4;overflow=hidden;rotatable=0;points=[[0,0.5],[1,0.5]];portConstraint=eastwest;whiteSpace=wrap;" vertex="1" parent="my3WOdS6CelaEkj1p_PE-1">
          <mxGeometry y="135" width="170" height="20" as="geometry" />
        </mxCell>
        <mxCell id="my3WOdS6CelaEkj1p_PE-6" value="dateFin: string" style="text;html=1;strokeColor=none;fillColor=none;align=left;verticalAlign=middle;spacingLeft=4;spacingRight=4;overflow=hidden;rotatable=0;points=[[0,0.5],[1,0.5]];portConstraint=eastwest;whiteSpace=wrap;" vertex="1" parent="my3WOdS6CelaEkj1p_PE-1">
          <mxGeometry y="155" width="170" height="20" as="geometry" />
        </mxCell>
        <mxCell id="my3WOdS6CelaEkj1p_PE-10" value="" style="line;strokeWidth=1;fillColor=none;align=left;verticalAlign=middle;spacingTop=-1;spacingLeft=3;spacingRight=3;rotatable=0;labelPosition=right;points=[];portConstraint=eastwest;" vertex="1" parent="my3WOdS6CelaEkj1p_PE-1">
          <mxGeometry y="175" width="170" height="8" as="geometry" />
        </mxCell>
        <mxCell id="my3WOdS6CelaEkj1p_PE-12" value="" style="endArrow=none;startArrow=none;endFill=0;startFill=0;endSize=8;html=1;verticalAlign=bottom;labelBackgroundColor=none;strokeWidth=1;rounded=0;" edge="1" parent="1" source="G8fAhoC2T2g0D4yBGHlA-1" target="my3WOdS6CelaEkj1p_PE-1">
          <mxGeometry width="160" relative="1" as="geometry">
            <mxPoint x="350" y="350" as="sourcePoint" />
            <mxPoint x="540" y="350" as="targetPoint" />
          </mxGeometry>
        </mxCell>
        <mxCell id="uG7y3TIqu0LmUmaoY-dK-8" value="0..*" style="edgeLabel;html=1;align=center;verticalAlign=middle;resizable=0;points=[];" vertex="1" connectable="0" parent="my3WOdS6CelaEkj1p_PE-12">
          <mxGeometry x="-0.9196" y="-1" relative="1" as="geometry">
            <mxPoint x="12" y="-2" as="offset" />
          </mxGeometry>
        </mxCell>
        <mxCell id="uG7y3TIqu0LmUmaoY-dK-9" value="1" style="edgeLabel;html=1;align=center;verticalAlign=middle;resizable=0;points=[];" vertex="1" connectable="0" parent="my3WOdS6CelaEkj1p_PE-12">
          <mxGeometry x="0.8927" relative="1" as="geometry">
            <mxPoint as="offset" />
          </mxGeometry>
        </mxCell>
        <mxCell id="my3WOdS6CelaEkj1p_PE-13" value="" style="endArrow=none;startArrow=none;endFill=0;startFill=0;endSize=8;html=1;verticalAlign=bottom;labelBackgroundColor=none;strokeWidth=1;rounded=0;" edge="1" parent="1" source="G8fAhoC2T2g0D4yBGHlA-29" target="my3WOdS6CelaEkj1p_PE-1">
          <mxGeometry width="160" relative="1" as="geometry">
            <mxPoint x="470" y="540" as="sourcePoint" />
            <mxPoint x="660" y="540" as="targetPoint" />
          </mxGeometry>
        </mxCell>
        <mxCell id="uG7y3TIqu0LmUmaoY-dK-11" value="1" style="edgeLabel;html=1;align=center;verticalAlign=middle;resizable=0;points=[];" vertex="1" connectable="0" parent="my3WOdS6CelaEkj1p_PE-13">
          <mxGeometry x="0.9048" y="1" relative="1" as="geometry">
            <mxPoint as="offset" />
          </mxGeometry>
        </mxCell>
        <mxCell id="uG7y3TIqu0LmUmaoY-dK-12" value="0..*" style="edgeLabel;html=1;align=center;verticalAlign=middle;resizable=0;points=[];" vertex="1" connectable="0" parent="my3WOdS6CelaEkj1p_PE-13">
          <mxGeometry x="-0.894" relative="1" as="geometry">
            <mxPoint as="offset" />
          </mxGeometry>
        </mxCell>
        <mxCell id="my3WOdS6CelaEkj1p_PE-14" value="&lt;b&gt;Administrateur&lt;/b&gt;" style="swimlane;fontStyle=0;align=center;verticalAlign=top;childLayout=stackLayout;horizontal=1;startSize=55;horizontalStack=0;resizeParent=1;resizeParentMax=0;resizeLast=0;collapsible=0;marginBottom=0;html=1;whiteSpace=wrap;" vertex="1" parent="1">
          <mxGeometry x="-100" y="550" width="170" height="183" as="geometry" />
        </mxCell>
        <mxCell id="my3WOdS6CelaEkj1p_PE-15" value="attributes" style="text;html=1;strokeColor=none;fillColor=none;align=center;verticalAlign=middle;spacingLeft=4;spacingRight=4;overflow=hidden;rotatable=0;points=[[0,0.5],[1,0.5]];portConstraint=eastwest;whiteSpace=wrap;" vertex="1" parent="my3WOdS6CelaEkj1p_PE-14">
          <mxGeometry y="55" width="170" height="20" as="geometry" />
        </mxCell>
        <mxCell id="my3WOdS6CelaEkj1p_PE-16" value="id: int" style="text;html=1;strokeColor=none;fillColor=none;align=left;verticalAlign=middle;spacingLeft=4;spacingRight=4;overflow=hidden;rotatable=0;points=[[0,0.5],[1,0.5]];portConstraint=eastwest;whiteSpace=wrap;" vertex="1" parent="my3WOdS6CelaEkj1p_PE-14">
          <mxGeometry y="75" width="170" height="20" as="geometry" />
        </mxCell>
        <mxCell id="my3WOdS6CelaEkj1p_PE-17" value="nom: string" style="text;html=1;strokeColor=none;fillColor=none;align=left;verticalAlign=middle;spacingLeft=4;spacingRight=4;overflow=hidden;rotatable=0;points=[[0,0.5],[1,0.5]];portConstraint=eastwest;whiteSpace=wrap;" vertex="1" parent="my3WOdS6CelaEkj1p_PE-14">
          <mxGeometry y="95" width="170" height="20" as="geometry" />
        </mxCell>
        <mxCell id="my3WOdS6CelaEkj1p_PE-18" value="email: string" style="text;html=1;strokeColor=none;fillColor=none;align=left;verticalAlign=middle;spacingLeft=4;spacingRight=4;overflow=hidden;rotatable=0;points=[[0,0.5],[1,0.5]];portConstraint=eastwest;whiteSpace=wrap;" vertex="1" parent="my3WOdS6CelaEkj1p_PE-14">
          <mxGeometry y="115" width="170" height="20" as="geometry" />
        </mxCell>
        <mxCell id="my3WOdS6CelaEkj1p_PE-19" value="numero: string" style="text;html=1;strokeColor=none;fillColor=none;align=left;verticalAlign=middle;spacingLeft=4;spacingRight=4;overflow=hidden;rotatable=0;points=[[0,0.5],[1,0.5]];portConstraint=eastwest;whiteSpace=wrap;" vertex="1" parent="my3WOdS6CelaEkj1p_PE-14">
          <mxGeometry y="135" width="170" height="20" as="geometry" />
        </mxCell>
        <mxCell id="my3WOdS6CelaEkj1p_PE-22" value="motDePasse: string" style="text;html=1;strokeColor=none;fillColor=none;align=left;verticalAlign=middle;spacingLeft=4;spacingRight=4;overflow=hidden;rotatable=0;points=[[0,0.5],[1,0.5]];portConstraint=eastwest;whiteSpace=wrap;" vertex="1" parent="my3WOdS6CelaEkj1p_PE-14">
          <mxGeometry y="155" width="170" height="20" as="geometry" />
        </mxCell>
        <mxCell id="my3WOdS6CelaEkj1p_PE-23" value="" style="line;strokeWidth=1;fillColor=none;align=left;verticalAlign=middle;spacingTop=-1;spacingLeft=3;spacingRight=3;rotatable=0;labelPosition=right;points=[];portConstraint=eastwest;" vertex="1" parent="my3WOdS6CelaEkj1p_PE-14">
          <mxGeometry y="175" width="170" height="8" as="geometry" />
        </mxCell>
        <mxCell id="my3WOdS6CelaEkj1p_PE-25" value="&lt;b&gt;Role&lt;/b&gt;" style="swimlane;fontStyle=0;align=center;verticalAlign=top;childLayout=stackLayout;horizontal=1;startSize=55;horizontalStack=0;resizeParent=1;resizeParentMax=0;resizeLast=0;collapsible=0;marginBottom=0;html=1;whiteSpace=wrap;" vertex="1" parent="1">
          <mxGeometry x="-250" y="290" width="170" height="143" as="geometry" />
        </mxCell>
        <mxCell id="my3WOdS6CelaEkj1p_PE-26" value="attributes" style="text;html=1;strokeColor=none;fillColor=none;align=center;verticalAlign=middle;spacingLeft=4;spacingRight=4;overflow=hidden;rotatable=0;points=[[0,0.5],[1,0.5]];portConstraint=eastwest;whiteSpace=wrap;" vertex="1" parent="my3WOdS6CelaEkj1p_PE-25">
          <mxGeometry y="55" width="170" height="20" as="geometry" />
        </mxCell>
        <mxCell id="my3WOdS6CelaEkj1p_PE-27" value="id: int" style="text;html=1;strokeColor=none;fillColor=none;align=left;verticalAlign=middle;spacingLeft=4;spacingRight=4;overflow=hidden;rotatable=0;points=[[0,0.5],[1,0.5]];portConstraint=eastwest;whiteSpace=wrap;" vertex="1" parent="my3WOdS6CelaEkj1p_PE-25">
          <mxGeometry y="75" width="170" height="20" as="geometry" />
        </mxCell>
        <mxCell id="my3WOdS6CelaEkj1p_PE-28" value="nom: string" style="text;html=1;strokeColor=none;fillColor=none;align=left;verticalAlign=middle;spacingLeft=4;spacingRight=4;overflow=hidden;rotatable=0;points=[[0,0.5],[1,0.5]];portConstraint=eastwest;whiteSpace=wrap;" vertex="1" parent="my3WOdS6CelaEkj1p_PE-25">
          <mxGeometry y="95" width="170" height="20" as="geometry" />
        </mxCell>
        <mxCell id="my3WOdS6CelaEkj1p_PE-29" value="description: string" style="text;html=1;strokeColor=none;fillColor=none;align=left;verticalAlign=middle;spacingLeft=4;spacingRight=4;overflow=hidden;rotatable=0;points=[[0,0.5],[1,0.5]];portConstraint=eastwest;whiteSpace=wrap;" vertex="1" parent="my3WOdS6CelaEkj1p_PE-25">
          <mxGeometry y="115" width="170" height="20" as="geometry" />
        </mxCell>
        <mxCell id="my3WOdS6CelaEkj1p_PE-32" value="" style="line;strokeWidth=1;fillColor=none;align=left;verticalAlign=middle;spacingTop=-1;spacingLeft=3;spacingRight=3;rotatable=0;labelPosition=right;points=[];portConstraint=eastwest;" vertex="1" parent="my3WOdS6CelaEkj1p_PE-25">
          <mxGeometry y="135" width="170" height="8" as="geometry" />
        </mxCell>
        <mxCell id="my3WOdS6CelaEkj1p_PE-33" value="" style="endArrow=none;startArrow=none;endFill=0;startFill=0;endSize=8;html=1;verticalAlign=bottom;labelBackgroundColor=none;strokeWidth=1;rounded=0;" edge="1" parent="1" source="my3WOdS6CelaEkj1p_PE-14" target="my3WOdS6CelaEkj1p_PE-25">
          <mxGeometry width="160" relative="1" as="geometry">
            <mxPoint x="750" y="539" as="sourcePoint" />
            <mxPoint x="960" y="384" as="targetPoint" />
          </mxGeometry>
        </mxCell>
        <mxCell id="uG7y3TIqu0LmUmaoY-dK-2" value="1" style="edgeLabel;html=1;align=center;verticalAlign=middle;resizable=0;points=[];" vertex="1" connectable="0" parent="my3WOdS6CelaEkj1p_PE-33">
          <mxGeometry x="0.8667" relative="1" as="geometry">
            <mxPoint y="1" as="offset" />
          </mxGeometry>
        </mxCell>
        <mxCell id="uG7y3TIqu0LmUmaoY-dK-3" value="0..*" style="edgeLabel;html=1;align=center;verticalAlign=middle;resizable=0;points=[];" vertex="1" connectable="0" parent="my3WOdS6CelaEkj1p_PE-33">
          <mxGeometry x="-0.8667" relative="1" as="geometry">
            <mxPoint y="1" as="offset" />
          </mxGeometry>
        </mxCell>
      </root>
    </mxGraphModel>
  </diagram>
</mxfile>
